<svg id="Layer_1" data-name="Layer 1" xmlns="http://www.w3.org/2000/svg" viewBox="0 0 581.57 128.75"><defs><style>.cls-1{fill:#231f20;}</style></defs><path class="cls-1" d="M575.7,136.4c-27.52,0-48.45-7-62.31-20.76-11.47-11.43-14.92-24.17-18.25-36.5C491.59,66,488.24,53.6,475.5,43.63,457,29.15,427.8,25.87,407.58,36c-17.67,8.85-23.36,25-29.37,42.17-6.08,17.29-12.36,35.17-31.84,45.4s-46.16,9.49-63.78-1.58c-11.89-7.48-15.23-16.82-19.46-28.64-3.53-9.85-7.91-22.1-18.79-36.72-8.29-11.15-30.3-40.76-65.23-46.11-24.44-3.75-50.26,4.79-76.74,25.37C91.91,44,86.13,51.36,80.54,58.46,73.89,66.91,67.61,74.89,54.26,84a133.66,133.66,0,0,1-49.19,20.3l-.4-2a131.76,131.76,0,0,0,48.47-20C66.23,73.41,72.42,65.55,79,57.22c5.67-7.2,11.52-14.64,22.17-22.91,26.94-20.94,53.27-29.62,78.27-25.78C215.15,14,237.53,44.1,246,55.43,257,70.29,261.44,82.7,265,92.66c4.26,11.91,7.34,20.51,18.65,27.62,17,10.72,43,11.36,61.78,1.51s24.93-27.37,30.88-44.29c5.89-16.76,12-34.09,30.37-43.3,20.86-10.45,51-7.07,70.05,7.86C490,52.43,493.43,65.15,497.07,78.62c3.26,12.07,6.64,24.55,17.73,35.6C530,129.31,554,136,586.12,134.08l.12,2C582.63,136.29,579.11,136.4,575.7,136.4Z" transform="translate(-4.67 -7.65)"/></svg>