<?xml version="1.0" encoding="utf-8"?>
<!-- Generator: Adobe Illustrator 24.2.0, SVG Export Plug-In . SVG Version: 6.00 Build 0)  -->
<svg version="1.1" id="Capa_1" xmlns="http://www.w3.org/2000/svg" xmlns:xlink="http://www.w3.org/1999/xlink" x="0px" y="0px"
	 viewBox="0 0 1200 682.5" style="enable-background:new 0 0 1200 682.5;" xml:space="preserve">
<style type="text/css">
	.st0{fill:url(#SVGID_1_);stroke:#000000;stroke-width:2;stroke-miterlimit:10;}
	.st1{fill:#FFFFFF;stroke:#000000;stroke-width:2;stroke-miterlimit:10;}
	.st2{fill:#FFFFFF;}
</style>
<radialGradient id="SVGID_1_" cx="600" cy="341.2502" r="300.6414" fx="511.8189" fy="457.8385" gradientUnits="userSpaceOnUse">
	<stop  offset="0.3951" style="stop-color:#EFD4FF"/>
	<stop  offset="0.4132" style="stop-color:#E7CCF6"/>
	<stop  offset="0.5751" style="stop-color:#A084AF"/>
	<stop  offset="0.7204" style="stop-color:#684B76"/>
	<stop  offset="0.8442" style="stop-color:#3F224D"/>
	<stop  offset="0.9413" style="stop-color:#260933"/>
	<stop  offset="1" style="stop-color:#1D002A"/>
</radialGradient>
<circle class="st0" cx="600" cy="341.3" r="300.6"/>
<g>
	<g>
		<path class="st1" d="M610.3,544.2c-118,0-213.7-95.7-213.7-213.7c0-81.3,45.5-154.7,118.8-191.3c3.2-1.6,7.2-0.8,9.6,1.6
			c2.4,2.4,3.2,6.4,1.6,9.6c-13.6,27.1-19.9,56.6-19.9,86.9c0,108.4,88.5,196.9,196.9,196.9c31.1,0,59.8-7.2,87.7-20.7
			c3.2-1.6,7.2-0.8,9.6,1.6c2.4,2.4,3.2,6.4,1.6,9.6C766.6,497.9,692.5,544.2,610.3,544.2z"/>
	</g>
</g>
<polygon class="st1" points="582.8,67.5 591.9,68.7 585.4,75.2 587.1,84.2 578.9,80 570.9,84.4 572.3,75.3 565.7,69 574.7,67.6 
	578.7,59.3 "/>
<polygon class="st2" points="700.9,220.3 703.4,220.6 701.6,222.4 702,224.9 699.8,223.8 697.6,225 698,222.5 696.1,220.7 
	698.6,220.3 699.7,218 "/>
<polygon class="st2" points="689.1,97.1 691.6,97.4 689.8,99.2 690.3,101.7 688,100.5 685.8,101.7 686.2,99.2 684.4,97.5 
	686.9,97.1 688,94.8 "/>
<polygon class="st2" points="661.5,186.9 664,187.2 662.2,189 662.7,191.5 660.4,190.3 658.2,191.5 658.6,189 656.8,187.3 
	659.3,186.9 660.4,184.6 "/>
<polygon class="st2" points="750.1,222.6 757.1,223.6 752.1,228.6 753.3,235.5 747.1,232.3 740.8,235.7 741.9,228.7 736.8,223.8 
	743.8,222.7 746.9,216.4 "/>
<polygon class="st2" points="750.1,113.2 757.1,114.1 752.1,119.1 753.3,126.1 747.1,122.9 740.8,126.2 741.9,119.2 736.8,114.4 
	743.8,113.3 746.9,106.9 "/>
<polygon class="st2" points="844.2,228.9 851.2,229.8 846.2,234.8 847.5,241.8 841.2,238.6 835,241.9 836.1,235 831,230.1 838,229 
	841,222.6 "/>
<polygon class="st2" points="810.6,361.7 812.5,361.9 811.2,363.3 811.5,365.2 809.8,364.4 808.1,365.3 808.4,363.4 806.9,362 
	808.9,361.7 809.7,359.9 "/>
<polygon class="st2" points="828.4,303.8 832.8,304.4 829.7,307.4 830.5,311.7 826.6,309.8 822.7,311.8 823.4,307.5 820.3,304.5 
	824.6,303.8 826.5,299.9 "/>
<polygon class="st2" points="760.6,310.9 762.6,311.2 761.2,312.5 761.5,314.5 759.8,313.6 758.1,314.5 758.4,312.6 757,311.2 
	758.9,310.9 759.8,309.2 "/>
<polygon class="st2" points="804.2,194.6 806.1,194.9 804.8,196.2 805.1,198.2 803.4,197.3 801.6,198.2 802,196.3 800.5,194.9 
	802.5,194.6 803.3,192.9 "/>
<polygon class="st2" points="750.6,275.4 752.5,275.6 751.2,277 751.5,278.9 749.8,278 748.1,279 748.4,277 746.9,275.7 
	748.9,275.4 749.7,273.6 "/>
<polygon class="st2" points="786.7,244.7 791,245.3 788,248.4 788.7,252.7 784.9,250.7 781,252.8 781.7,248.5 778.5,245.5 
	782.8,244.8 784.7,240.8 "/>
<polygon class="st2" points="782.7,288.3 787,288.9 783.9,292 784.7,296.2 780.8,294.3 777,296.3 777.7,292 774.5,289 778.8,288.3 
	780.7,284.4 "/>
<polygon class="st2" points="859.4,326.1 863.7,326.7 860.7,329.8 861.4,334.1 857.6,332.1 853.7,334.2 854.4,329.8 851.2,326.8 
	855.5,326.1 857.4,322.2 "/>
<polygon class="st2" points="822.2,383.4 826.5,384 823.4,387.1 824.2,391.4 820.3,389.4 816.5,391.5 817.2,387.2 814,384.1 
	818.3,383.5 820.2,379.5 "/>
<polygon class="st2" points="571.8,124.8 578.8,125.7 573.8,130.7 575.1,137.7 568.8,134.5 562.6,137.8 563.7,130.8 558.6,126 
	565.5,124.9 568.6,118.5 "/>
<polygon class="st2" points="698.4,129.8 703.4,130.5 699.8,134.1 700.7,139.1 696.2,136.7 691.7,139.2 692.5,134.2 688.8,130.7 
	693.9,129.9 696,125.3 "/>
<polygon class="st2" points="531.9,92.4 536.9,93 533.3,96.6 534.3,101.6 529.7,99.3 525.3,101.7 526.1,96.7 522.4,93.2 527.4,92.4 
	529.6,87.9 "/>
<polygon class="st2" points="608.9,122.7 611.8,123.1 609.7,125.2 610.2,128.1 607.6,126.7 605,128.2 605.4,125.2 603.3,123.2 
	606.2,122.7 607.5,120 "/>
<polygon class="st2" points="643.6,110.2 646.5,110.6 644.4,112.7 645,115.6 642.3,114.3 639.7,115.7 640.2,112.7 638,110.7 
	640.9,110.2 642.2,107.5 "/>
<polygon class="st2" points="786.3,151.9 789.8,152.3 787.3,154.8 788,158.3 784.8,156.7 781.8,158.3 782.3,154.9 779.8,152.5 
	783.2,151.9 784.7,148.8 "/>
<polygon class="st2" points="737.5,185.2 739.1,185.4 738,186.5 738.2,188 736.8,187.3 735.5,188.1 735.7,186.5 734.6,185.4 
	736.1,185.2 736.8,183.8 "/>
<polygon class="st2" points="757.6,210.3 759.2,210.5 758.1,211.7 758.3,213.2 756.9,212.5 755.6,213.2 755.8,211.7 754.7,210.6 
	756.2,210.4 756.9,208.9 "/>
<polygon class="st2" points="725.8,163 727.4,163.2 726.3,164.3 726.6,165.9 725.2,165.2 723.8,165.9 724,164.4 722.9,163.3 
	724.4,163 725.1,161.6 "/>
<polygon class="st2" points="657.5,148 659,148.2 657.9,149.3 658.2,150.9 656.8,150.2 655.4,150.9 655.7,149.3 654.5,148.3 
	656.1,148 656.8,146.6 "/>
<polygon class="st2" points="814.7,174 816.2,174.2 815.1,175.3 815.4,176.8 814,176.1 812.6,176.9 812.9,175.3 811.8,174.2 
	813.3,174 814,172.6 "/>
<polygon class="st2" points="851.9,289.6 853.5,289.8 852.4,290.9 852.7,292.5 851.3,291.8 849.9,292.5 850.1,291 849,289.9 
	850.5,289.6 851.2,288.2 "/>
<polygon class="st2" points="807.6,281.5 809.2,281.7 808.1,282.8 808.4,284.4 807,283.7 805.6,284.4 805.8,282.9 804.7,281.8 
	806.3,281.5 806.9,280.1 "/>
<polygon class="st2" points="829.4,346.5 831,346.7 829.9,347.8 830.2,349.3 828.8,348.6 827.4,349.4 827.6,347.8 826.5,346.7 
	828.1,346.5 828.7,345.1 "/>
<polygon class="st2" points="627.1,145.9 628.6,146.1 627.5,147.2 627.8,148.7 626.4,148 625,148.8 625.3,147.2 624.1,146.1 
	625.7,145.9 626.3,144.5 "/>
<polygon class="st2" points="577.2,108.7 578.8,108.9 577.7,110 578,111.6 576.6,110.9 575.2,111.6 575.4,110.1 574.3,109 
	575.9,108.7 576.5,107.3 "/>
<polygon class="st2" points="645.2,69 646.7,69.2 645.6,70.3 645.9,71.8 644.5,71.1 643.2,71.9 643.4,70.3 642.3,69.2 643.8,69 
	644.5,67.6 "/>
<polygon class="st2" points="721.2,239.1 722.7,239.3 721.6,240.4 721.9,241.9 720.5,241.2 719.1,241.9 719.4,240.4 718.2,239.3 
	719.8,239.1 720.5,237.7 "/>
<polygon class="st2" points="723.6,260.9 725.1,261.1 724,262.2 724.3,263.7 722.9,263 721.5,263.8 721.8,262.2 720.6,261.1 
	722.2,260.9 722.9,259.5 "/>
<polygon class="st2" points="627.1,178.2 628.6,178.5 627.5,179.6 627.8,181.1 626.4,180.4 625,181.1 625.3,179.6 624.1,178.5 
	625.7,178.3 626.3,176.9 "/>
<polygon class="st2" points="705.4,185.9 710,186.5 706.7,189.7 707.5,194.3 703.5,192.2 699.4,194.4 700.1,189.8 696.8,186.7 
	701.3,185.9 703.3,181.8 "/>
</svg>
