<?xml version="1.0" encoding="utf-8"?>
<!-- Generator: Adobe Illustrator 24.2.0, SVG Export Plug-In . SVG Version: 6.00 Build 0)  -->
<svg version="1.1" id="Capa_1" xmlns="http://www.w3.org/2000/svg" xmlns:xlink="http://www.w3.org/1999/xlink" x="0px" y="0px"
	 viewBox="0 0 2927.3 2922.1" style="enable-background:new 0 0 2927.3 2922.1;" xml:space="preserve">
<style type="text/css">
	.st0{fill:#FFFFFF;}
</style>
<g>
	<g>
		<path class="st0" d="M1533,2807.1c-784.1,0-1419.8-635.7-1419.8-1419.8c0-540.4,302-1027.8,789.4-1271.4
			c21.2-10.6,47.7-5.3,63.6,10.6c15.9,15.9,21.2,42.4,10.6,63.6c-90.1,180.1-132.4,376.1-132.4,577.4
			c0,720.5,588,1308.5,1308.5,1308.5c206.6,0,397.3-47.7,582.7-137.7c21.2-10.6,47.7-5.3,63.6,10.6s21.2,42.4,10.6,63.6
			C2571.3,2499.8,2078.6,2807.1,1533,2807.1z"/>
	</g>
</g>
</svg>
