<?xml version="1.0" encoding="utf-8"?>
<!-- Generator: Adobe Illustrator 24.2.0, SVG Export Plug-In . SVG Version: 6.00 Build 0)  -->
<svg version="1.1" id="Capa_1" xmlns="http://www.w3.org/2000/svg" xmlns:xlink="http://www.w3.org/1999/xlink" x="0px" y="0px"
	 viewBox="0 0 72 72" style="enable-background:new 0 0 72 72;" xml:space="preserve">
<style type="text/css">
	.st0{fill:#FFFFFF;}
</style>
<g>
	<path class="st0" d="M72,32.8c0,11.2-9.1,20.2-20.2,20.2c-1.5,0-3-0.2-4.5-0.5c-2.7,4.2-7.3,6.8-12.4,6.8c-6.2,0-11.6-3.8-13.7-9.5
		c-2,1-4.2,1.5-6.4,1.5C6.6,51.4,0,44.8,0,36.7S6.6,22,14.7,22c1.4,0,2.8,0.2,4.2,0.6c2-6,7.5-10.1,13.9-10.1c3.1,0,6.2,1,8.7,2.8
		c3.1-1.9,6.7-2.8,10.3-2.8C62.9,12.6,72,21.7,72,32.8z"/>
</g>
</svg>
