<?xml version="1.0" encoding="utf-8"?>
<!-- Generator: Adobe Illustrator 24.2.0, SVG Export Plug-In . SVG Version: 6.00 Build 0)  -->
<svg version="1.1" id="Layer_1" xmlns="http://www.w3.org/2000/svg" xmlns:xlink="http://www.w3.org/1999/xlink" x="0px" y="0px"
	 viewBox="0 0 159.7 118.4" style="enable-background:new 0 0 159.7 118.4;" xml:space="preserve">
<style type="text/css">
	.st0{fill:#FFFFFF;stroke:#FFFFFF;stroke-miterlimit:10;}
	.st1{fill:#FFFFFF;}
	.st2{fill:#ED1A7F;}
</style>
<g id="surface1">
	<g>
		<path class="st0" d="M13.5,118.2c7.4,0,12.7-3.8,12.7-9.6c0-6.6-6.4-7.9-12.4-9.1c-5.6-1.1-11.1-2.1-11.1-7.3
			c0-4.5,4.2-7.4,10.5-7.4c6.1,0,10.2,3.1,10.2,8h1.8c0-5.7-4.7-9.5-12-9.5c-7.5,0-12.3,3.5-12.3,9c0,6.3,6.4,7.6,12.3,8.8
			c5.7,1.1,11.1,2.2,11.1,7.6c0,4.8-4.5,8-10.8,8c-7,0-11.6-4.7-11.6-10.1H0C0,112.8,5.4,118.2,13.5,118.2z"/>
		<path class="st0" d="M41.3,93.2c-6.4,0-11.3,5.3-11.3,12.5c0,7.2,4.8,12.5,11.3,12.5c6.5,0,11.3-5.4,11.3-12.5
			C52.6,98.5,47.8,93.2,41.3,93.2z M41.3,116.8c-5.7,0-10-4.8-10-11.1c0-6.4,4.2-11.1,10-11.1c5.7,0,10,4.8,10,11.1
			C51.3,112,47,116.8,41.3,116.8z"/>
		<path class="st0" d="M67.5,92.7c-4,0-7.5,2.6-9.1,6.3l0-5.8H57v25.3h1.4v-14.7c0-5.2,4.1-9.6,8.8-9.6c5,0,8,3.6,8,9.7v14.7h1.4
			v-14.9C76.6,96.9,73.1,92.7,67.5,92.7z"/>
		<rect x="82.4" y="93.2" class="st0" width="1.5" height="25.2"/>
		<rect x="82.4" y="83.6" class="st0" width="1.5" height="5.2"/>
		<rect x="158.2" y="93.2" class="st0" width="1.5" height="25.2"/>
		<rect x="158.2" y="83.6" class="st0" width="1.5" height="5.2"/>
		<path class="st0" d="M110.8,109.9h-1.4c-1.7,4-5,7.1-9.1,7.1c-5.7,0-10.1-4.9-10.1-11.2c0-6.4,4.3-11.2,10.1-11.2
			c4.1,0,7.2,2.6,8.7,6.5h1.3c-1.6-4.6-5.1-7.9-10.1-7.9c-6.5,0-11.4,5.4-11.4,12.6c0,7.2,5,12.6,11.4,12.6
			C105.2,118.4,109.1,114.6,110.8,109.9z"/>
		<path class="st0" d="M141.7,102.6c6.9,0,12.1-3.5,12.1-9.5c0-6-5.2-9.5-12.1-9.5h-12.9v34.8h1.8v-15.8H141.7z M130.5,85.2h11.1
			c5.9,0,10.3,2.9,10.3,7.9c0,5.1-4.4,7.9-10.3,7.9h-11.1V85.2z"/>
	</g>
	<path class="st1" d="M71.7,14.9l0.7-0.7c0,0,16.6,12.4,16.3,25.2c-0.3,13.9-8.5,22-16.3,27.6L72,66.4c0,0,12.7-10.8,11.4-27.9
		C83.4,38.4,83.5,25.6,71.7,14.9"/>
	<path class="st1" d="M89.7,8l0.8-0.9c0,0,19.1,14.9,18.7,30.2c-0.4,16.6-9.8,26.4-18.7,33.1L90,69.7c0,0,14.6-12.9,13.1-33.5
		C103.1,36.2,103.2,20.8,89.7,8"/>
	<path class="st1" d="M109.2,1l1-1c0,0,23.2,17.2,22.8,34.9c-0.5,19.2-11.9,30.5-22.8,38.2l-0.6-0.8c0,0,17.7-14.9,15.9-38.7
		C125.6,33.7,125.7,15.9,109.2,1"/>
	<path class="st2" d="M43.5,29l1.2-2.6h27l2-0.6l-1.7,3L66.6,29L63,49c0,0-0.3,2.1,0.4,2.6c0.7,0.4,3-0.6,4.9-3.1l0.9,1.4
		c0,0-2,2.8-4.1,4.4c-2.1,1.6-4.4,2.7-6.4,2.1c-2-0.6-1-4.5-1-4.5l4-22.8h-8.9L48,55.9H43l4.7-26.8L43.5,29"/>
</g>
</svg>
