<?xml version="1.0" encoding="utf-8"?>
<!-- Generator: Adobe Illustrator 24.2.0, SVG Export Plug-In . SVG Version: 6.00 Build 0)  -->
<svg version="1.1" id="Layer_1" xmlns="http://www.w3.org/2000/svg" xmlns:xlink="http://www.w3.org/1999/xlink" x="0px" y="0px"
	 viewBox="0 0 485.8 396" style="enable-background:new 0 0 485.8 396;" xml:space="preserve">
<style type="text/css">
	.st0{fill:#ECECEC;}
	.st1{fill:#F2F1F9;}
	.st2{fill:#E26CFC;}
	.st3{fill:#4C4AAD;}
	.st4{fill:#7B78B6;}
	.st5{fill:#A378ED;}
	.st6{fill:#584F9C;}
	.st7{fill:#992AFA;}
	.st8{fill:#F0E2F4;}
	.st9{fill:#F9CDB9;}
	.st10{fill:#382E7E;}
	.st11{fill:#5A519D;}
	.st12{fill:#E374FC;}
	.st13{fill:#AC86EE;}
	.st14{fill:#F5F5F5;}
	.st15{fill:#59509C;}
	.st16{fill:#71549F;}
	.st17{fill:#5F6FEA;}
	.st18{fill:#5C6DEA;}
	.st19{fill:#9C64EB;}
	.st20{fill:#6056A2;}
	.st21{fill:#F0CABF;}
	.st22{fill:#372D7D;}
	.st23{fill:#9C90BC;}
	.st24{fill:#7F71A7;}
	.st25{fill:#B5ACCF;}
	.st26{fill:#9A2BFA;}
	.st27{fill:#150BF7;}
	.st28{fill:#5C6EEA;}
	.st29{fill:#352B7A;}
	.st30{fill:#392F7F;}
	.st31{fill:#463E86;}
	.st32{fill:#DA6DEC;}
	.st33{fill:#7659A5;}
	.st34{fill:#7A5CA7;}
	.st35{fill:#D9D6E9;}
	.st36{fill:#FAE5FE;}
	.st37{fill:#5250AF;}
	.st38{fill:#5351B0;}
	.st39{fill:#6128EC;}
	.st40{fill:#5F2BE6;}
	.st41{fill:#602AE7;}
	.st42{fill:#AA82EE;}
	.st43{fill:#5936D2;}
	.st44{fill:#5935D3;}
	.st45{fill:#5A33D7;}
	.st46{fill:#BAB9DF;}
	.st47{fill:#70539F;}
	.st48{fill:#EBEBEC;}
	.st49{fill:#7157A1;}
	.st50{fill:#5D539F;}
	.st51{fill:#E9E9EA;}
	.st52{fill:#F7F6FA;}
	.st53{fill:#7462A8;}
	.st54{fill:#7667AB;}
	.st55{fill:#C2BAD8;}
	.st56{fill:#F6CBB9;}
	.st57{fill:#BC8FF0;}
	.st58{fill:#EBEAEB;}
	.st59{fill:#392F7E;}
	.st60{fill:#FBFBFD;}
	.st61{fill:#F8F8FB;}
	.st62{fill:#7B77B5;}
	.st63{fill:#EAEAEB;}
	.st64{fill:#DD70F8;}
	.st65{fill:#E3E3E7;}
	.st66{fill:#443985;}
	.st67{fill:#6E6AAC;}
	.st68{fill:#4E458D;}
	.st69{fill:#D6D5E5;}
	.st70{fill:#F4F4F8;}
	.st71{fill:#AEAAD0;}
	.st72{fill:#CBC4DD;}
	.st73{fill:#5D6EEA;}
	.st74{fill:#B78AEF;}
	.st75{fill:#FAF8FD;}
	.st76{fill:#4F458F;}
	.st77{fill:#9264C3;}
	.st78{fill:#F8C3AA;}
	.st79{fill:#B292CA;}
	.st80{fill:#9C80CF;}
	.st81{fill:#EDECF6;}
	.st82{fill:#EBEBF3;}
	.st83{fill:#A19DC7;}
	.st84{fill:#D0CDE3;}
	.st85{fill:#978BB9;}
	.st86{fill:#E372FC;}
	.st87{fill:#E682FC;}
	.st88{fill:#E88DFC;}
	.st89{fill:#E98EFC;}
	.st90{fill:#E88EFC;}
	.st91{fill:#E67FFC;}
	.st92{fill:#9C2DF9;}
	.st93{fill:#E3E2F2;}
	.st94{fill:#E8E8E8;}
	.st95{fill:#F7CBBA;}
	.st96{fill:#7C78B6;}
	.st97{fill:#9ACAFF;}
	.st98{fill:#F9CCB9;}
	.st99{fill:#ECEAEC;}
	.st100{fill:#FDFAFA;}
	.st101{fill:#F3E6F6;}
	.st102{fill:#C2BBDA;}
	.st103{fill:#D96CEC;}
	.st104{fill:#9C2DFA;}
	.st105{fill:#A636FA;}
	.st106{fill:#A232FA;}
	.st107{fill:#AC3BFA;}
	.st108{fill:#B644FB;}
	.st109{fill:#DD69FB;}
	.st110{fill:#8A7EB0;}
	.st111{fill:#F2F1F6;}
	.st112{fill:#B3AACB;}
	.st113{fill:#897CAE;}
	.st114{fill:#B7AFCD;}
	.st115{fill:#B8B0CE;}
	.st116{fill:#B8B1CE;}
	.st117{fill:#C4BED7;}
	.st118{fill:#ECEBF5;}
	.st119{fill:#C8C6DF;}
	.st120{fill:#9930F8;}
	.st121{fill:#E26DFC;}
	.st122{fill:#F8C3A9;}
	.st123{fill:#9177D1;}
	.st124{fill:#A889CC;}
	.st125{fill:#F8CCBA;}
	.st126{fill:#D86CEC;}
	.st127{fill:#5A529D;}
	.st128{fill:#5C539E;}
	.st129{fill:#8E74D2;}
	.st130{fill:#AA8CCB;}
</style>
<g>
	<path class="st0" d="M398.3,53.3c0,24.7,0,49.3,0,74c0,12.5,0,25.1,0,37.6c0,1-0.2,2.1,0.5,3c-1.1,0.2-1.2-0.3-1.2-1.4
		c0.2-3.7-2.5-6.3-6.2-6.4c-0.7,0-1.4,0-2.1,0.2c-0.9,0.2-1.1-0.2-1.1-1c0-0.3,0-0.6,0-1c0.5-0.8,0.1-1.6-0.1-2.3
		c-2.6-11.9-5.2-23.8-7.8-35.6c-0.3-1.2-0.1-2.9-1.1-3.5c-1.1-0.8-2.5,0.3-3.9,0.5c-0.2,0-0.3,0-0.5,0.1
		c-11.9,2.6-23.8,5.2-35.7,7.7c-0.8,0.2-1.5,0.5-1.7,1.4c-0.3,0.9-0.1,1.7,0.1,2.6c1.2,5.5,2.4,11.1,3.6,16.6
		c1.6,7.1,3.1,14.2,4.7,21.2c0.4,1.9,0.4,1.8,2.4,1.4c3.2-0.7,6.4-1.4,9.6-2.1c0.8,2.6,1.8,5.2,2.9,7.7c-1.1,0-2.2,0-3.4,0
		c-53.6,0-107.3,0-160.9,0c-0.7,0-1.4,0-2.2,0c-0.9,0-1.4,0.3-1.3,1.3c0,0.5,0,1,0,1.4c0,15.7,0,31.3,0,47c0,3,0,3,3,3
		c23.3,0,46.5,0,69.8,0c0.8,0,1.6-0.1,2.4-0.1c3,2.5,5.9,5,8.7,7.8c-0.2,1.5,0.9,2.2,1.9,2.9c1.2,0.8,2.1,1.8,2.4,3.3
		c-0.6,1.4,0.3,2.9-0.1,4.4c-62,0-124.1,0-186.1,0c0.1-2,0.2-4,0.2-6c0-3.8-0.1-7.6-1.2-11.3c0.1-0.5,0.1-1,0.8-1c0.7,0,1.4,0,2.2,0
		c27.9,0,55.8,0,83.6,0c0.7,0,1.4,0,2.2,0c0.8,0,1.2-0.4,1.1-1.2c0-0.4,0-0.8,0-1.2c0-3.2,0.2-2.8-2.8-2.8c-27.4,0-54.8,0-82.2,0
		c-1.9,0-3.8,0-5.8,0c-1.6-3.2-2.2-6.6-2.3-10.2c-0.1-2.3-0.2-4.6,0.3-6.9c0.2-1,0.5-1.7,1.6-1.8c0.9,0.3,1.7,0.2,2.6,0.2
		c28.6,0,57.2,0,85.8,0c0.6,0,1.1,0,1.7,0c0.8,0,1.2-0.3,1.2-1.1c-0.1-1.3,0.2-2.6-0.2-3.8c-0.8-0.7-1.8-0.4-2.8-0.4
		c-27.3,0-54.5,0-81.8,0c-0.6,0-1.3,0-1.9,0c-0.6,0-1-0.1-1.3-0.7c-1-2-2.6-3.6-4.2-5.2c-0.4-0.8-0.7-1.5-1.1-2.3
		c0.1-1.1,0.8-1.7,1.9-1.9c0,0.3,0,0.6,0,1c0,3-0.3,2.8,2.9,2.8c28.5,0,57,0,85.5,0c0.6,0,1.3,0,1.9,0c0.6,0,0.9-0.3,0.9-0.9
		c0-0.5,0-1,0-1.4c0-3.2,0.2-2.9-2.8-2.9c-28,0-55.9,0-83.9,0c-1,0-2.1,0-3.1-0.1c1.8-2.2,4.1-4,5.8-6.3c0.2-0.2,0.6-0.3,0.8-0.4
		c0.4,0,0.8,0,1.2,0c26.5,0,53.1,0,79.6,0c0.4,0,0.8,0,1.2,0c0.8,0,1.2-0.4,1.2-1.2c0-0.4,0-0.8,0-1.2c0-3.2,0.2-2.9-2.8-2.9
		c-23.1,0-46.2,0-69.3,0c-2.6,0-5.1,0-7.7-0.1c2.2-4.1,3.8-8.5,5.3-13c23.9,0,47.8,0,71.7,0c3,0,2.8,0.3,2.8-2.9
		c0-28.6,0-57.2,0-85.8c0-0.4,0-0.8,0-1.2c-0.1-1.6-0.1-1.7-1.8-1.7c-0.3,0-0.6,0-1,0c-28.6,0-57.2,0-85.8,0c-3,0-2.8-0.3-2.8,2.9
		c0,28.6,0,57.2,0,85.8c0,0.2,0,0.3,0,0.5c0,2.4,0,2.4,2.3,2.4c3.1,0,6.2,0,9.4,0c-0.1,1.8-1,3.3-1.8,4.8c-1.6,2.9-3,5.9-5.5,8.2
		c-5-0.1-4.3-0.8-4.2,4.2c-3,2.8-6.5,4.5-10.6,5.3c-0.3-1.2-0.9-2.4,1-2.8c0.4-0.1,0.7-0.6,0.9-1c1.3-0.3,2.2-1.1,2.5-2.5
		c1.4-1.3,1.5-3,1.9-4.7c0.1-0.5-0.1-1.1,0.6-1.4c1.3-0.6,0.9-1.3,0-1.9c-0.4-0.3-0.5-0.7-0.7-1.2c-0.4-1.5-0.9-3-1.4-4.5
		c1.1-0.8,1.8-1.8,2.2-3c1.2-3.2-0.2-6.3-3.2-7.4c-2.5-0.9-5.2,0.6-6.2,3.6c-0.4,1.3-1.2,1.8-2.4,1.8c-0.8,0-1.6,0-2.4,0
		c0.5-0.5,1.1-0.9,1-1.8c-0.1-0.6,0-1.3,0-1.9c0-32.9,0-65.8,0-98.7c0-1,0-2.1,0-3.1c1,0,2.1,0.1,3.1,0.1c105.4,0,210.8,0,316.1,0
		C396.2,53.3,397.3,53.3,398.3,53.3z M235.7,91.1c0-4,0-8,0-12c0-2.6,0-5.3,0-7.9c0-1.1-0.4-1.7-1.5-1.6c-0.4,0-0.8,0-1.2,0
		c-12.5,0-24.9,0-37.4,0c-0.5,0-1,0-1.4,0c-0.8,0-1.1,0.5-1.1,1.2c0,0.4,0,0.8,0,1.2c0,12.5,0,25.1,0,37.6c0,2.5,0.2,2.6,2.6,2.6
		c12.6,0,25.3,0,37.9,0c2.2,0,2.3,0,2.3-2.3C235.7,103.8,235.7,97.4,235.7,91.1z M312,69.7c-6.5,0-12.9,0-19.4,0
		c-2.1,0-2.1,0-2.1,2.1c0,12.7,0,25.4,0,38.1c0,2.3,0.1,2.4,2.4,2.4c12.6,0,25.2,0,37.9,0c2.3,0,2.3,0,2.3-2.2c0-12.8,0-25.6,0-38.3
		c0-2.1,0-2.1-2.1-2.1C324.6,69.7,318.3,69.7,312,69.7z M360.7,112.3c6.3,0,12.6,0,19,0c2.2,0,2.2,0,2.2-2.1c0-12.8,0-25.6,0-38.4
		c0-2.1,0-2.1-2.1-2.1c-12.8,0-25.6,0-38.4,0c-2,0-2,0-2,1.9c0,12.9,0,25.7,0,38.6c0,2,0,2,2.2,2
		C347.9,112.3,354.3,112.3,360.7,112.3z M284.2,91.1c0-3.4,0-6.7,0-10.1c0-3.3,0-6.6,0-9.8c0-1.1-0.4-1.7-1.5-1.6c-0.3,0-0.6,0-1,0
		c-12.5,0-24.9,0-37.4,0c-2.4,0-2.4,0-2.4,2.3c0,12.6,0,25.3,0,37.9c0,2.4,0,2.4,2.3,2.4c12.6,0,25.1,0,37.7,0c2.3,0,2.3,0,2.3-2.4
		C284.2,103.6,284.2,97.4,284.2,91.1z M311.6,160.8c6.4,0,12.8,0,19.2,0c2.3,0,2.3,0,2.3-2.2c0-12.6,0-25.2,0-37.9
		c0-2.1,0-2.1-2.2-2.1c-12.8,0-25.6,0-38.3,0c-2.1,0-2.2,0-2.2,2.1c0,12.6,0,25.2,0,37.9c0,2.2,0,2.2,2.3,2.2
		C299,160.8,305.3,160.8,311.6,160.8z M193.1,139.5c0,6.5,0,12.9,0,19.4c0,2,0,2,2,2c12.9,0,25.7,0,38.6,0c1.9,0,1.9,0,1.9-2
		c0-12.8,0-25.6,0-38.4c0-2,0-2-2-2c-12.9,0-25.7,0-38.6,0c-1.9,0-2,0-2,2C193.1,126.8,193.1,133.1,193.1,139.5z M241.9,139.7
		c0,5.6,0,11.2,0,16.8c0,1,0,2.1,0,3.1c0,0.8,0.3,1.2,1.1,1.2c0.5,0,1,0,1.4,0c12.4,0,24.8,0,37.1,0c0.3,0,0.6,0,1,0
		c1.1,0.1,1.6-0.5,1.5-1.6c0-0.4,0-0.8,0-1.2c0-12.2,0-24.4,0-36.7c0-0.5,0-1,0-1.4c0-0.9-0.3-1.4-1.3-1.3c-0.5,0-1,0-1.4,0
		c-12.3,0-24.6,0-36.9,0c-0.5,0-1,0-1.4,0c-0.8,0-1.2,0.4-1.2,1.2c0,0.6,0,1.1,0,1.7C241.9,127.5,241.9,133.6,241.9,139.7z
		 M138.3,209.8c-14.5,0-28.9,0-43.4,0c-2.3,0-2.3,0-2.3,2.2c0,3.5-0.4,3,3.1,3c28.3,0,56.6,0,84.8,0c3.7,0,3.4,0.7,3.4-3.5
		c0-1.7-0.1-1.7-1.8-1.7c-0.5,0-1,0-1.4,0C166.6,209.8,152.5,209.8,138.3,209.8z"/>
	<path class="st1" d="M408.9,331.1c1.6,0.9,3.4,0.7,5.1,0.8c11,1.3,21.8,3.2,32.6,5.5c7.2,1.5,14.5,3.3,21.3,6.2
		c3.2,1.3,6.2,2.9,8.7,5.4c1.7,1.7,1.7,5,0,6.7c-2.3,2.3-5.1,3.8-8,5.1c-8.5,3.7-17.6,5.6-26.6,7.5c-6,1.3-12.2,2.2-18.3,3.1
		c-3.8,0.6-7.7,1-11.5,1.7c-3.1,0.6-6.3,0.7-9.5,1.1c-3.5,0.4-7.1,0.9-10.6,1.3c-1.8,0.2-3.7,0.4-5.5,0.5c-4.6,0.3-9.2,0.8-13.8,1.2
		c-4.7,0.4-9.5,0.5-14.2,1.3c-0.2,0-0.3,0-0.5,0c-3.8-0.3-7.5,0.2-11.2,0.6c-3.8,0.4-7.7-0.2-11.4,0.8c-0.2,0-0.3,0-0.5,0
		c-5-0.3-9.9,0.4-14.8,0.6c-5,0.2-10.1,0-15,0.5c-4.9,0.5-9.7,0-14.6,0.4c-10.9,0.9-21.7-0.1-32.6,0.5c-8.6,0.5-17.3,0.6-25.8,0.2
		c-10.7-0.5-21.4,0.1-32.1-0.5c-5.7-0.3-11.3,0-17-0.5c-4.1-0.4-8.1,0-12.2-0.5c-3.5-0.4-7-0.2-10.5-0.4c-6-0.5-12.1-0.7-18.1-1
		c-4.7-0.2-9.3-0.7-14-1c-4.5-0.3-9-0.6-13.5-1c-4-0.4-8.1-0.6-12.1-1.3c-1.7-0.3-3.5-0.3-5.2-0.4c-3.7-0.3-7.4-0.7-11.1-1.1
		c-3.2-0.3-6.3-0.9-9.4-1.3c-2.8-0.3-5.7-0.6-8.5-1.1c-3.6-0.6-7.2-1-10.8-1.6c-5-0.9-10-1.8-15-2.8c-8.3-1.7-16.7-3.6-24.6-6.9
		c-2.9-1.2-5.6-2.6-8-4.8c-2.8-2.5-2.6-6.6,0.9-8.9c2.8-1.8,5.8-3.4,9-4.5c8.2-3,16.7-5,25.4-6.7c3.6-0.7,7.2-1.4,10.8-1.9
		c1-0.2,2.3-0.2,2.9-1.3c-0.1,3.9-0.8,7.8-1.2,11.6c-0.3,3.3-0.7,6.6-1.1,10c0,0.5-0.2,1.1,0.3,1.3c0.8,0.3,1.7,0.3,2.6,0
		c0.7-0.2,0.5-0.9,0.6-1.5c0.3-2.9,0.6-5.9,1-8.8c0.5-3.6,0.5-3.5,4.1-3.5c0.5,4.1,0.9,8.2,1.4,12.4c0.1,0.5-0.1,1.1,0.5,1.3
		c0.8,0.3,1.8,0.3,2.6,0c0.7-0.3,0.4-1.1,0.3-1.7c-0.4-3.5-0.8-7-1.2-10.5c-0.1-1,0-1.5,1.2-1.5c5.9,0,11.8,0,17.7,0
		c0.7,0,1.1,0.2,1.2,0.9c-0.5,3.8-0.9,7.6-1.4,11.3c-0.1,0.5-0.3,1,0.1,1.3c0.8,0.6,1.7,0.2,2.5,0.2c0.6,0,0.6-0.6,0.7-1.1
		c0.1-0.8,0.2-1.6,0.3-2.4c0.4-3.5,0.8-6.9,1.2-10.4c0.3,0,0.6,0,1,0c2.6,0,2.7,0,3,2.6c0.4,3.2,0.7,6.5,1.1,9.8
		c0.1,0.5,0,1.1,0.5,1.3c0.8,0.3,1.8,0.3,2.6,0c0.7-0.3,0.4-1.1,0.3-1.7c-0.5-4.9-1.1-9.8-1.6-14.8c-0.4-3.9-1-7.8-1.2-11.7
		c1,1.4,2.4,1.1,3.7,0.8c1.4-0.3,2.8-0.3,4.2-0.4c0.6,0,1.3-0.1,1.9-0.2c2.5-0.3,5-0.7,7.5-0.7c2.5,0,4.9-0.6,7.3-0.6
		c0.3,0,0.5-0.3,0.8-0.5c1.2,0.7,1.4,1.8,1.4,3.1c-0.1,7,0,13.9,0,20.9c0,0.8-0.4,1.8,0.5,2.5c7.2,3.8,14.4,7.5,21.6,11.3
		c0.8,0.4,1.6,0.7,2.4-0.2c6.7-3.5,13.5-7,20.2-10.4c1.1-0.5,1.5-1.2,1.5-2.4c-0.1-7.6-0.1-15.2-0.1-22.7c1.2-1.7,2.4-3.3,3.8-4.8
		c0.5,0.6,1.2,0.4,1.8,0.5c1.5,0.2,2.8-0.5,4.2-0.5c4.8-0.1,9.5-0.1,14.3-0.4c8.7-0.5,17.5,0.1,26.2-0.6c-0.3,0.3-0.7,0.4-1,0.5
		c-2.5,0.9-5.2,1.4-7.5,2.8c-0.2,0.8-0.2,1.5,0.6,2.1c0.8,0.7,1.8,1.3,2.3,2.3c-1.8,1.1-3.7,2.1-5.5,3.2c-2,1.3-4.4,2-6.1,3.9
		c-0.3,1.2,0.4,1.7,1.3,2.2c9.3,5.3,18.6,10.7,28,16.1c0.2,0.4,0.6,0.4,0.9,0.3c1-0.6,2.1-1.2,3.1-1.7c3.3-1.7,6.3-4,9.8-5.4
		c1.2,1,2.4,2,3.6,2.9c0.5,0.9,1.2,0.6,1.9,0.4c1.1-0.3,2.1-0.7,3.2-1.1c7.1-2.3,14.2-4.6,21.2-6.9c-0.1,0.9-0.6,1.6-1,2.4
		c-1.1,2.4-2.3,4.8-3.5,7.2c-0.9,1.2-0.9,1.7,0.4,1.8c2.1,0.1,4.1,0.2,6.1,0.6c0.2,0,0.3,0,0.5,0c0.4-0.1,0.8-0.3,0.8-0.7
		c0.1-0.4-0.2-0.8-0.6-1c-0.5-0.2-1.1-0.2-1.6-0.3c-1.1-0.1-2.2,0.1-3.3-0.3c1.1-1.2,2.2-2.3,3.3-3.5c2.6-3,5.4-5.7,7.6-9.1
		c5.8-1,11.2-3,16.3-6.8c-0.4,1.9-1.1,3.1-1.7,4.4c-2.4,5-4.7,9.9-7.1,14.9c-0.4,0.2-0.9,0.4-0.9,1c0.1,0.6,0.5,0.8,1,0.8
		c2.1,0.1,4.1,0.3,6.2,0.6c0.6,0.1,1.2-0.1,1.3-0.8c0.1-0.8-0.5-1.1-1.2-1.2c-1.2-0.1-2.4-0.1-3.6-0.2c-0.1-0.2-0.1-0.4-0.2-0.7
		c2.8-2.8,5.1-5.9,7.5-8.9c5.4-6.9,11.2-13.6,15.4-21.4c0.3,1.4,1.5,1.5,2.6,1.5c2.4,0,4.8-0.2,7.2,0.1c4.4,0.6,8.9,0.2,13.3,0.9
		c0,0.6,0,1.3-0.1,1.9c-0.9,7-1.8,13.9-2.7,20.9c-0.3,2.6-0.6,5.2-0.9,7.8c0.5,0.1,0.8,0.1,1.2,0.1c2.2,0,2.2,0,2.5-2.1
		c0.4-3.7,1-7.4,1.4-11.2c0.3-2.8,0.4-2.5,2.7-2.5c7.5,0,15,0,22.5,0c0.5,0,1,0,1.4,0c0.6,0,0.9,0.3,0.9,0.9c0,0.7-0.1,1.4-0.2,2.1
		c-0.4,3.6-0.9,7.1-1.3,10.7c-0.3,2.1-0.2,2.1,1.9,2.1c1.5,0,1.4-0.9,1.5-1.9c0.6-5,1.3-10,2-14.9c0.7-0.4,0.2-1.5,0.9-1.9
		c0.3,2.4,0.7,4.9,1,7.3c0.5,3.4,0.9,6.8,1.4,10.2c0.2,1.1,1,1.4,2.6,1.1c1.1-0.2,0.8-1,0.7-1.7c-0.5-4-1-8.1-1.5-12.1
		c-0.3-2-0.3-2,1.7-2c7.4,0,14.8,0,22.3,0c3.6,0,2.8-0.4,3.5,3c0.1,0.4,0.1,0.8,0.1,1.2c0.4,3.4,0.9,6.8,1.3,10.2
		c0.2,1.4,0.6,1.5,2.4,1.4c1.3-0.1,1.1-0.9,1-1.7c-0.5-4.2-1.1-8.4-1.6-12.6C409.7,338.2,409,334.7,408.9,331.1z"/>
	<path class="st2" d="M398.3,53.3c-1,0-2.1,0.1-3.1,0.1c-105.4,0-210.8,0-316.1,0c-1,0-2.1,0-3.1-0.1c0-9.5,0-19.1,0-28.6
		c1,0,1.9,0,2.9,0c105.5,0,211,0,316.6,0c1,0,1.9,0,2.9,0C398.3,34.2,398.3,43.7,398.3,53.3z M378.1,43.2c2.9-1.3,3.7-2.7,3.5-6
		c-0.2-2.4-1.5-3.7-4.4-4.5c-0.7,0-1.4-0.1-2.2-0.1c-26,0-52,0-77.9,0c-0.6,0-1.3,0-1.9,0c-3.3,0.4-5.4,3.7-4.4,6.9
		c0.9,2.7,2.9,4,6.3,4.1c26.1,0,52.1,0,78.2,0C376.3,43.7,377.2,43.5,378.1,43.2z M101.7,47.7c5.7,0.3,9.4-4.8,9.3-9.2
		c-0.1-5.1-4-9-9.1-9.2c-4.7-0.2-9.3,3.9-9.4,9.1C92.5,43.3,96.8,48,101.7,47.7z"/>
	<path class="st0" d="M398.3,24.6c-1,0-1.9,0-2.9,0c-105.5,0-211,0-316.6,0c-1,0-1.9,0-2.9,0c0-4.2,0-8.4-0.1-12.6
		c107.5,0,214.9,0,322.4,0C398.3,16.3,398.3,20.5,398.3,24.6z M101.1,20.7c1.2,0,2.3-1,2.4-2.2c0.1-1.3-1-2.5-2.3-2.5
		c-1.3,0-2.3,0.9-2.4,2.2C98.8,19.5,99.8,20.6,101.1,20.7z M95.1,18.3c0-1.2-1-2.3-2.2-2.4c-1.3-0.1-2.5,1-2.5,2.3
		c0,1.2,1,2.3,2.2,2.4C93.8,20.8,95,19.6,95.1,18.3z M86.5,18.4c0.1-1.3-1-2.5-2.3-2.5c-1.2,0-2.3,1-2.3,2.2
		c-0.1,1.3,1.1,2.5,2.4,2.5C85.4,20.6,86.5,19.6,86.5,18.4z"/>
	<path class="st3" d="M94.1,227.9c1.1,3.7,1.2,7.5,1.2,11.3c0,2-0.1,4-0.2,6c-0.6,4-1.4,8-1.9,12c-0.9,6.6-1.7,13.3-2.7,19.9
		c-1.2,9-2.7,18-3.7,27c-0.1,0.3-0.3,0.5-0.3,0.8c-0.1,0.4-0.1,1-0.7,1c-0.6,0-0.7-0.5-0.7-1c-0.1-0.6,0.1-1.2-0.4-1.8
		c-0.5-7.2-1-14.5-1.6-21.7c-0.9-10.7-1.9-21.3-2.8-32c0.1-1.1,0.1-2.1-0.2-3.3c-0.8,0.6-0.7,1.2-0.6,1.8
		c-1.7,10.5-3.5,20.9-5.2,31.4c-1.3,8-2.4,16.1-3.6,24.2c-0.5,0.5-0.4,1.2-0.5,1.8c-0.1,0.4-0.3,0.5-0.6,0.5c-0.3,0-0.6-0.2-0.7-0.5
		c-0.2-0.6,0-1.3-0.4-1.8c-0.7-15.8-1.6-31.6-2-47.4c-0.1-3.4,0-6.7-0.1-10.1c-0.1-2.4-0.4-4.8-0.6-7.2c-0.3-4.6,0.7-8.9,3.5-12.6
		c0.8,0,1.6,0,2.4,0.2c2.9,0.6,5.7,1.1,8.7,1.2c4.5,0.2,9-0.1,13.4-1.4C93.7,227.1,93.6,227.6,94.1,227.9z M76,238.5
		c0.9-1.9,0.3-3.8,0.3-5.8c-0.5,1.7,0,3.6-0.8,5.3c-0.3,0.5-0.6,1.2-1,1.6c-1.7,1.9-3.8,1.6-5-0.6c-0.5-0.9-0.9-1.9-0.7-3
		c0.8-1.5,1-3.2,1.2-4.9c-0.9,1.4-1.3,2.9-1.7,4.4c0,0.6,0,1.1,0,1.7c0,2.2,1.4,4.6,2.9,5c1.5,0.4,3.9-1.4,4.7-3.5
		C75.9,238.7,75.9,238.6,76,238.5z M90.8,237.6c-0.1,0.8-0.5,1.5-1,2.1c-1.2,1.4-2.2,1.6-3.7,0.5c-1.2-0.9-2-2-2.1-3.6
		c0.1-1.5-0.6-2.9-0.7-4.3c-0.1,1.5-0.6,2.9,0.2,4.3c-0.3,2.2,0.8,3.8,2.5,5c1.5,1.1,3.2,0.8,4.4-0.7c0.4-0.6,0.8-1.2,0.9-1.9
		c0.7-0.7,0.5-1.6,0.3-2.5c-0.3-1.3-0.6-2.6-1-3.9c-0.2-0.6-0.3-1.2-1.2-1.5C90,233.4,91.1,235.3,90.8,237.6z M71.6,245.5
		c2,0.5,4,0.2,5.9-0.4c1.6-0.5,3.1-0.4,4.6,0.3c2.2,0.9,4.4,2,7,0.5c-3-0.7-5.8-1.4-8.4-2.8c-1-0.5-2-0.5-3,0.1
		C75.8,244.3,73.8,245.2,71.6,245.5z"/>
	<path class="st4" d="M400.3,264.8c0.7,1.6,0.6,3.4,0.8,5.1c0.3,2.8,1.2,5.4,2.4,8c0.8,1.9,1.3,2.1,3.4,1.7
		c6.1-1.1,11.4-3.8,15.6-8.4c0.7,0.4,1.4,0.6,1.8,1.4c-4,5.3-8.8,9.7-14.6,12.8c-1.4,0.8-2.8,1.5-4.4,1.7c-1.4,0.2-2,0.8-1.6,2.2
		c0.1,0.3,0,0.6,0,0.9c-0.5-0.4-0.5-1-0.5-1.5c0-1-0.5-1.4-1.5-1.4c-0.4,0-0.9-0.4-1.3,0.1c0,0.6-0.1,1.2-0.1,1.9
		c-0.3-1.9-1.3-3.2-2.7-4.4c-0.9-0.7-1.9-1.6-2.4-2.6c-1.5-3.1-4-3.6-7.1-3.1c-0.1,0-0.2,0-0.2,0c0-0.2,0-0.4,0-0.5
		c1.3-0.1,2.5,0.2,3.8-0.5c-1.3,0-2.5,0-3.8,0c0-0.2,0-0.4,0-0.6c1.2,0.1,2.4,0.2,3.9-0.1c-1.2-1.9-2.2-3.5-3.2-5.2
		c-0.3,0.6-0.5,0.8-0.6,1.1c0.1-1.9-0.5-3.5-1.4-5.2c-3.8-7.1-6.9-14.5-9-22.2c-0.1-0.3-0.1-0.8-0.3-0.9c-0.4-0.2-0.3,0.3-0.5,0.5
		c-0.1-0.2-0.3-0.4-0.4-0.6c0-0.9,0-1.8,0-2.7c0-1-0.7-1.1-1.4-1.1c-2.1,0-4.1,0-6.2,0c-0.7,0-1.5,0.3-1.9-0.5c2.6,0,5.1,0,7.7,0.1
		c1.2,0,1.5-0.5,1.5-1.6c-0.2-2.6-0.7-5.2-0.5-7.9c0.1-1-0.5-1.2-1.3-1.2c-2.9,0.1-5.7-0.2-8.6,0.2c0.4-0.9,1.2-0.6,1.8-0.6
		c2.4,0,4.7,0,7.1,0c0.8,0,0.7-0.4,0.5-0.9c1.2-1.9,1.1-2-0.8-2c-2.4,0-4.7,0-7.1,0c-1.6,0-1.6,0-1.6,1.9c-0.6-0.3-0.6-0.9-0.6-1.4
		c0.1-2.7-0.4-5.3-0.8-8c-0.2-1.2,0-1.5,1.4-1.5c2.6,0,5.2,0,7.8,0c0.9,0,1.8,0.1,2.5-0.5c-0.4,1.9-0.8,3.7-1.1,5.6
		c-0.4,2.2-0.3,2.4,1.8,2.9c0.7,0.1,1.4,0.2,2.1,0.2c1.7,0.1,3.3,0.1,5,0.1c0.1,3.4-0.1,6.8,0.3,10.2c0.3,2.5,0.3,5.1,0.7,7.6
		c1.3,7.7,3,15.4,5.7,22.8c2,5.3,4.5,10.2,8.8,14c1.2,1.1,2.5,2,4.1,2.4c0.2,0.1,0.4,0.4,0.6,0.4c4.4,0.5,8.2-0.7,11.4-3.7
		c1.2-0.1,1.8-1,2.4-1.9c1.8-0.8,3.5-2.5,4-4.3c-1.5,1.5-3,2.7-4,4.3c-1.2,0.1-1.8,1-2.4,1.9c-0.9,0.1-1.6,0.6-2.3,1.1
		c-2.9,1.6-5.8,2.7-9.2,1.8c-2.2-0.6-3.8-2-5.2-3.6c-3.5-4-6-8.6-7.7-13.6c-1.3-3.9-2.4-7.9-3.3-11.9c-1.8-8.2-3-16.4-3-24.8
		c0-0.9,0-1.8,0-2.6c2.2-0.5,4.5-0.7,6.7-1.4c0.2,0.4,0.5,0.7,1,0.8c1.4,2.1,2.9,4.2,3.6,6.9c0.5-0.8,0.1-1.5,0.3-2.1
		c0.6,2.1,0.8,4.2,0.8,6.4c-0.9,1-0.4,2.3-0.6,3.4c-0.7,3.3-1.1,6.6,0.1,9.9c0.3,0.9,0.4,1.9,0.6,2.8c0.9,4.6,1.8,9.2,3,13.8
		C400.4,265.9,400.1,265.3,400.3,264.8z"/>
	<path class="st5" d="M93.7,226.6c-4.4,1.3-8.9,1.6-13.4,1.4c-2.9-0.1-5.8-0.6-8.7-1.2c-0.8-0.2-1.6-0.2-2.4-0.2
		c-0.8-0.6-1.1-1.1-0.3-2.1c2.1-2.8,3.9-5.8,4.9-9.3c0.9-3.2,1-6.3,0-9.4c-1-3.1-1.8-6.3-2.7-9.4c-1.1-3.9,0.5-8.4,4.4-10.3
		c0.3-0.1,0.6-0.3,0.8-0.4c1.9-0.6,3.9-1.1,5.8-1.7c4-0.8,7.5-2.5,10.6-5.3c1.7-1.1,3.4-2.3,4.2-4.2c2.5-2.3,3.9-5.3,5.5-8.2
		c0.8-1.5,1.7-3,1.8-4.8c0.6-0.5,0.8-1.3,1.1-2.1c1.3-3.5,2.1-7.1,2.5-10.8c0.6,1.3,1.7,0.8,2.7,0.9c0.2,0.5,0.2,1,0.2,1.6
		c-0.1,3.5-0.7,6.9-1.2,10.4c-1.4,4.4-3.1,8.8-5.3,13c-1.2,1.7-2.8,3.1-3.4,5.2c-0.3,0.1-0.7,0.2-0.8,0.4c-1.7,2.3-4,4.1-5.8,6.3
		c-0.7,0.4-1.2,0.9-1.6,1.6c-1.1,0.2-1.7,0.8-1.9,1.9c-2.1-0.5-3.5,1.2-5.4,1.7c1.8,0.8,3.6,1.3,5.5,1.2c0.4,0,0.7-0.2,1-0.6
		c1.6,1.6,3.2,3.1,4.2,5.2c0.3,0.6,0.7,0.7,1.3,0.7c0.6,0,1.3,0,1.9,0c27.3,0,54.5,0,81.8,0c0.9,0,1.9-0.3,2.8,0.4c-1,0-1.9,0-2.9,0
		c-27.2,0-54.5,0-81.7,0c-0.6,0-1.3,0-1.9,0c-0.4,0-0.9-0.1-1.1,0.3c-0.8,1.8-2.7,2.7-3.5,4.4c-1,0.2-1.3,0.8-1.6,1.8
		c-0.5,2.3-0.4,4.6-0.3,6.9c0.2,3.5,0.8,7,2.3,10.2c0.1,1,0.6,1.8,1.1,2.5C95.3,225.5,94.6,226,93.7,226.6z M78.8,187.1
		c-1.2-0.6-1.8,0.1-2.5,0.4c-3.4,1.8-4.7,5.8-3.1,9.2c0.3,0.6,0.6,1.3,1.4,0.9c0.7-0.3,1.4-0.8,1-1.8c-0.1-0.3-0.2-0.6-0.3-0.9
		c-0.9-2.4-0.3-4.3,1.5-6C77.5,188.3,78.1,187.8,78.8,187.1z"/>
	<path class="st6" d="M374.8,229c0.2,0.5,0.3,0.9-0.5,0.9c-2.4,0-4.7,0-7.1,0c-0.7,0-1.5-0.3-1.8,0.6c0.4,3.5,0.9,6.9,1.3,10.4
		c0.5,0.8,1.3,0.5,1.9,0.5c2.1,0,4.1,0,6.2,0c0.8,0,1.5,0.1,1.4,1.1c-1.9,0-3.8-0.1-5.7-0.1c-3.9,0-3.9,0-3.2,4
		c0,0.1,0.1,0.3,0.2,0.4c-0.1,2.2,0.6,4.3,0.6,6.5c0.5,1,1.4,0.6,2.1,0.6c2.3,0,4.6,0,6.9,0c-0.7,0.6-1.4,0.5-2.1,0.5
		c-1.8,0-3.7,0-5.5,0c-1.5,0-1.5,0.2-1.1,1.9c0.4,2.7,0.8,5.4,1.1,8c0.1,1.1,0.5,1.5,1.7,1.5c2.5-0.1,4.9,0,7.4,0c0,0.4,0,0.7,0,1.1
		c-2.5,0-4.9,0.1-7.4,0c-1,0-1.3,0.4-1.2,1.3c0.4,2.8,0.7,5.7,1.1,8.5c0.1,0.8,0.5,1.2,1.4,1.2c2-0.1,4-0.1,6-0.1c0.5,0,1,0,1.5,0
		c0.2,0.6,0.3,1.3,0.5,1.9c-1.4-0.6-1.4-0.6-2.3,0.9c-0.2-0.5,0.3-1.5-0.7-1.5c-2,0-3.9-0.3-5.9,0.2c0.2,1.6,0.3,3.1,0.5,4.6
		c0.2,1.7,0.5,3.3,0.7,5c0.1,0.6,0.2,1.2,0.9,1.1c1.2-0.1,2.4,0.4,3.5-0.5c2.2,1,2.4,0.9,3.4-1.4c0,0.5,0,1,0.1,1.4
		c0.1,0.6,0.5,0.5,0.9,0.5c0,0.3,0,0.7,0,1c-0.4,0-0.9,0-1.3,0c-1.2,0-2.6-0.4-3.5,0.9c-0.1-0.5-0.2-0.9-0.9-0.9
		c-0.9,0.1-1.9-0.2-2.9,0.3c0.4,3.2,0.8,6.3,1.2,9.5c0.1,0.4-0.1,1.1,0.6,1.1c0.6,0,0.5-0.7,0.9-1c0.5,1.7,1.9,0.9,2.9,1
		c1.1,1.1,2.6,0.1,4.3,1c-1.3,0-2.1,0-2.8,0c-0.5,0-1.1,0-1.4,0.6c-0.1,1,0,2-0.5,2.9c-0.1-3-0.1-3-2.9-3c-1,0.4-1,0.5-0.1,1.4
		c-0.5,3,0.3,5.9,0.6,8.8c0.1,1.1,0.8,1,1.5,0.3c0.2,0.2,0.4,0.5,0.8,0.4c3,0.2,6.1,0.3,9.1,0c4.7,0,9.4,0.1,14.1,0.1
		c1.9,0,2-0.1,1.7-2.1c-0.3-2.8-0.9-5.5-0.9-8.3c0-1.3-0.9-1.1-1.7-1.1c-2.7,0-5.4,0-8.1,0c-1.7,0-3.3,0-5.4,0
		c1.1-0.7,1.8-0.4,2.5-0.4c3.4,0,6.7,0,10.1,0c0.8,0,1.6,0.3,2.2-0.5c-0.4-3.1-0.7-6.1-1.1-9.2c-0.2-1.7-0.3-1.7-2.1-1.8
		c-3.6,0-7.1-0.1-10.7-0.1c-0.1-0.3-0.3-0.7-0.4-1c3.7,0,7.5,0,11.2,0c0.7,0,1.5,0.3,1.7-0.8c0-0.6,0.1-1.3,0.1-1.9
		c0.4-0.5,0.9-0.1,1.3-0.1c1-0.1,1.5,0.3,1.5,1.4c0,0.5,0,1.1,0.5,1.5c1.1,9,2.2,18,3.5,27c0.6,4.6,0.9,9.2,1.9,13.7
		c0.1,3.6,0.8,7.1,1.2,10.7c0.5,4.2,1.1,8.4,1.6,12.6c0.1,0.8,0.4,1.6-1,1.7c-1.8,0.1-2.2,0-2.4-1.4c-0.5-3.4-0.9-6.8-1.3-10.2
		c-0.1-0.4,0-0.8-0.1-1.2c-0.7-3.4,0.2-3-3.5-3c-7.4,0-14.8,0-22.3,0c-2,0-2,0-1.7,2c0.5,4,1,8.1,1.5,12.1c0.1,0.6,0.4,1.5-0.7,1.7
		c-1.5,0.3-2.4,0-2.6-1.1c-0.5-3.4-0.9-6.8-1.4-10.2c-0.3-2.4-0.7-4.9-1-7.3c0-0.5,0-1,0-1.4c0-0.2,0.2-0.6-0.3-0.6
		c0,0-0.1,0.4-0.1,0.6c-0.1,0.3-0.3,0.7-0.4,1c-0.4-1.6,0.7-3.1,0.4-4.7c-0.4-2.6-0.9-5.3-1-8c0-0.6-0.4-1-0.9-1.3
		c0.1-2.4,0.4-4.9-0.5-7.2c0-0.4,0-0.7,0-1.1c-0.4-3.2-0.7-6.5-1.1-9.7c-0.1-1-0.7-1.3-1.6-1.3c-7.2,0.1-14.5,0.1-21.8,0.1
		c0.6-0.9,1.6-0.5,2.4-0.5c6.1,0,12.1,0,18.2,0c0.6,0,1.3,0.3,2-0.4c-6.2,0-12.3,0-18.3,0c-1,0-2.1,0-3.1,0c-0.9,0-1.3-0.5-1.2-1.3
		c0-0.6,0-1.1,0.5-1.5c0.2,0.7-0.2,1.6,0.2,2.4c1.6,0,3.1,0,4.7,0c5.4,0,10.8,0,16.2,0c1,0,1.5-0.2,1.3-1.3
		c-0.5-3.2-0.9-6.4-1.3-9.7c0-0.4,0-0.8,0-1.2c-0.4-3.1-0.8-6.1-1.3-9.2c-0.2-1.7-0.3-1.7-2.1-1.7c-2.9,0-5.7,0-8.6,0
		c-2.2,0-4.4-0.2-6.7,0.2c0.4-0.9,1.2-0.6,1.9-0.6c3,0,5.9,0,8.9,0c2,0,4,0,5.9,0c0-0.1,0-0.3,0-0.4c-0.8,0-1.5,0-2.3,0
		c-3.9,0-7.8,0-11.8,0c-0.8,0-1.6,0.3-2.2-0.5c5.4,0,10.9,0,16.4,0c0-2.8-0.5-5.3-0.8-7.8c-0.2-1.1,0.1-2.3-0.7-3.2
		c0.1-0.3,0.5-0.7-0.1-1c0.2-3.5-0.8-6.8-1-10.2c-0.1-1-0.9-0.9-1.6-0.9c-2.5,0-5,0.1-7.4,0c-1.5-0.1-2,0.6-2.3,1.7
		c0.1-2,0.1-2.1,1.9-2.1c2.9,0,5.7,0,8.6,0c-2.6-0.4-5.2-0.4-7.9-0.4c-0.7,0-1.6,0.4-2.1-0.6c3.1,0,6.2,0.1,9.3,0.1
		c1,0,1.2-0.4,1.1-1.3c-0.3-2.1-0.6-4.2-0.9-6.4c0-0.4,0-0.8,0-1.2c-0.2-2.1-0.3-2.1-2.3-2.1c-1.9,0-3.8,0-5.7,0
		c0.4-0.7,1.1-0.6,1.7-0.6c1.6,0,3.2,0,4.8,0c0.3,0,0.9,0.1,0.6-0.6c0.6-0.5,0.5-1.1,0.4-1.8c-0.3-1.7-0.5-3.3-0.7-5
		c-0.6-4.9,0.5-4.6-5.3-4.2c0.3-0.8,1-0.6,1.6-0.6c0.9,0,1.7,0,2.6,0c-1.2-0.8-2.7,0.1-3.8-0.9c1.4-0.1,2.8,0.2,4.2-0.2
		c-0.1-0.7-0.3-1.3-0.4-1.8c-0.1-1-0.1-2-0.3-3c-0.4-2-0.5-4-0.7-6c0.1-1.1-1.1-0.8-1.4-1.4c0.4-0.1,1.2,0.1,1.1-0.5
		c-0.3-1.1,0.4-2.4-0.6-3.4c0.3-2.4-0.3-4.7-0.6-7c-0.3-2.1,0.1-4.4-1.2-6.4c0.1-0.4,0-0.9,0.2-1.1c0.7-0.7,1.7-0.3,2.5-0.3
		c0.7,0,1.1,0.3,1,1c0,1.3,0.5,2.5,0.5,3.8c0,1.6,0.3,1.8,2.1,1.9c2.6,0,5.3,0,7.9,0c0.4,0.5,0.7,0.9,1.1,1.4c-2.9,0-5.9,0-8.8,0
		c-1.7,0-2,0.3-1.6,2c0.4,2.2,0.6,4.4,0.8,6.6c0.2,1.8,0.3,2,2.2,2c2.5,0,5.1,0,7.6,0c0.9,0,1.8-0.1,2.5,0.5c0,0.2,0,0.3,0,0.5
		c-0.7,0.6-1.6,0.5-2.5,0.5c-2.6,0-5.2,0-7.8,0c-1.4,0-1.6,0.3-1.4,1.5c0.4,2.6,0.9,5.3,0.8,8c0,0.5,0,1.1,0.6,1.4
		C368.5,228.9,371.6,229,374.8,229z M405.1,330.6c-0.1-2.4-0.1-2.4-1.5-2.4c-6.5,0-13.1,0.1-19.6,0.1c-1.5,0-3-0.1-4.5-0.1
		c-1.7,0-1.8,0.1-1.6,1.8c0.3,2.4,0.6,4.7,0.9,7.1c0.3,2.2,0.3,2.2,2.5,2.2c7.6,0,15.2,0,22.8,0c0.4,0,0.8,0,1.2,0c0.7,0,1-0.3,1-1
		C405.9,335.7,405.7,333.1,405.1,330.6z M376.7,319.1c-0.1,2.1,0.5,4.1,0.5,6.2c0,1.3,0.6,1.6,1.8,1.6c4.4-0.1,8.8,0,13.2,0
		c3.7,0,7.3,0,11,0c1.2,0,1.6-0.4,1.4-1.5c-0.4-2.4-0.6-4.9-0.9-7.4c-0.3-2.2-0.2-2.2-2.4-2.2c-7.3,0-14.5,0-21.8,0
		c-2,0-2,0-2.6,2.1c-0.2-0.6,0.2-1.5-0.7-1.8C376.4,317.1,376,318.2,376.7,319.1z"/>
	<path class="st6" d="M388.2,158.4c0,0.3,0,0.6,0,1c0,0.8,0.2,1.2,1.1,1c0.7-0.2,1.4-0.2,2.1-0.2c3.7,0.1,6.3,2.7,6.2,6.4
		c0,1.1,0.1,1.5,1.2,1.4c1.8,0.6,3.2,1.7,4.3,3.2c1.5,2.1,1.8,5.9-1.1,7.5c-0.4,0.2-0.9,0.4-0.9,1c0.4,2.5-1.2,3.8-2.9,5
		c-2.2,0.8-4.4,1.2-6.7,0.5c-0.3-0.2-0.7-0.4-0.9-0.7c-2.5-2.2-2.1-5.8,0.8-7.4c0.5-0.3,1-0.5,1.4-0.9c0.7-0.6,1.1-1.5,0.6-2.4
		c-0.5-0.8-1.3-1.2-2.2-0.8c-0.8,0.4-1.3,0.2-1.7-0.7c-0.9-2.1-2.8-3-4.9-3.4c-1.5-0.3-3-0.3-4.5-0.5c-2.7-1-4.9-2.5-5.3-5.7
		c0-0.5,0-1,0-1.6c0.3-0.8,0.5-1.7,0.8-2.5c1.2-2.9,4.3-4.4,7.5-3.8C385.4,155.3,386.8,156.9,388.2,158.4z"/>
	<path class="st5" d="M75,158.8c0.8,0,1.6,0,2.4,0c1.2,0,2-0.5,2.4-1.8c1-3,3.7-4.5,6.2-3.6c3,1.1,4.4,4.2,3.2,7.4
		c-0.5,1.2-1.1,2.3-2.2,3c-1.5-0.1-2.9,0.3-4.2,0.6c-3.3,0.9-5.1,3.2-5.4,6.5c-0.3,3.2,0.7,6,2.9,8.3c1.1,1.2,1.1,1.5-0.5,2.1
		c-1.1,0.4-2.3,0.7-3.4,1.1c-2-0.2-3.9,0.5-5.9,0.4c-3.2-0.1-4-0.5-5.1-3.6c-1.6-4.4-1.7-8.8-0.1-13.3
		C66.8,161.5,70.3,159.3,75,158.8z M83.6,154.3c1,0.5,2.2,1,3.1,1.7c1.1,0.9,0.7,2.2,0.7,3.4c0.1,1.2-1.2,1.9-1.1,3.3
		c1.9-1.5,2.7-3.9,2-5.8C87.7,155.4,85.7,154.2,83.6,154.3z"/>
	<path class="st7" d="M61.3,314.6c-0.6-1.2-1.7-0.6-2.6-0.6c-3.2-0.1-2.9,0.3-2.9-2.8c0-4,0-4,4-4c2.6,0,5.2,0.2,7.8-0.1
		c2.8,0,5.5,0,8.3,0.1c2.7,0.1,5.4,0.2,8.1-0.1c2.8,0,5.5,0,8.3,0c1.6,0,3.2,0,4.8,0.1c1.6,0.1,3.6-0.7,4.6,0.4c1,1.1,0.2,3,0.3,4.6
		c0,0.2,0,0.3,0,0.5c0.1,1-0.4,1.2-1.3,1.2c-1.3,0-2.7,0-4,0c-1.3,0-2.5,0-3.8,0c-0.3,0-0.4,0.1-0.5,0.3l-0.2,0
		c-0.5-0.4-1-0.4-1.6-0.4c-7.7,0-15.4,0-23.1,0c-0.5,0-1.1-0.1-1.6,0.3c-1.4-0.5-2.8-0.8-4.2,0.2C61.5,314.5,61.4,314.6,61.3,314.6z
		"/>
	<path class="st0" d="M391.6,185.3c2.3,0.7,4.5,0.2,6.7-0.5c0,20.1,0,40.1,0,60.2c0,0.5-0.1,1-0.1,1.4c-0.8-3.2-0.8-6.5-1.4-9.7
		c-0.1-2.1-0.3-4.3-0.8-6.4c-0.2-1.8-0.3-3.6-0.6-5.4c-0.5-3.4-0.7-6.9-1.4-10.3c0-0.3,0-0.7,0-1c0-1,0.2-2,0.5-3.1
		c0.9-3.1,1.8-6.1,2.6-9.2c0.5-2,0.5-3.9,0.1-5.9c-0.7-3-2.9-4.6-5.5-5.9C391.6,188.1,391.6,186.7,391.6,185.3z"/>
	<path class="st8" d="M398.3,12.1c-107.5,0-214.9,0-322.4,0c0.3-0.3,0.6-0.5,1-0.5c0.7,0,1.4,0,2.2,0c105.3,0,210.7,0,316,0
		C396.2,11.6,397.4,11.2,398.3,12.1z"/>
	<path class="st9" d="M76.4,182.4c1.1-0.4,2.3-0.7,3.4-1.1c1.5-0.6,1.6-0.9,0.5-2.1c-2.2-2.3-3.2-5.1-2.9-8.3
		c0.3-3.4,2.1-5.7,5.4-6.5c1.4-0.4,2.8-0.7,4.2-0.6c0.5,1.5,1,3,1.4,4.5c0.1,0.5,0.2,0.9,0.7,1.2c0.8,0.6,1.3,1.3,0,1.9
		c-0.7,0.3-0.5,0.9-0.6,1.4c-0.4,1.7-0.5,3.5-1.9,4.7c-0.6-0.6-1.4-0.7-2.2-0.9c-0.8-0.2-1.7-0.2-2.1,0.7c-0.3,0.8,0,1.6,0.7,2.1
		c0.3,0.2,0.7,0.3,1.1,0.5c-0.2,0.5-0.5,0.9-0.9,1c-1.9,0.4-1.3,1.7-1,2.8c-1.9,0.6-3.9,1.1-5.8,1.7
		C76.4,184.5,76.4,183.5,76.4,182.4z M85.1,167.9c0.8-0.1,1.2,1,2.2,0.8c0-0.9-0.5-1.2-1.1-1.3c-2.1-0.5-3.1,0.2-3.2,2.3
		C83.5,168.9,84,168,85.1,167.9z M83.8,174.7c0.7-0.1,1.4,0.1,2.1-0.3c1.1-0.6,1.1-1.4,0.2-2.2c-1.3-1.1-3.4-1.1-4.6-0.2
		c-0.7,0.5-0.7,1-0.3,1.6C81.8,174.6,82.8,174.7,83.8,174.7z"/>
	<path class="st10" d="M61.3,314.6c0.1,0,0.2-0.1,0.3-0.2c0.7,0,0.9,0.4,1,1.1c0.1,4,1.3,7.9,0.5,11.9c0,0.3,0,0.6,0.1,0.9
		c0,0.1-0.1,0.3-0.1,0.4c0.5,0.5,0.7,1,0,1.5c0,0.6,0,1.1-0.1,1.7c-0.5,1.1-0.4,2.4-0.4,3.6c-0.2,0.8-0.4,1.7-0.4,2.5
		c-0.3,3.2-0.3,3.2,2.8,3.2c0.4,0.3,0.5,0.7,0.5,1.1c-3.6-0.1-3.7-0.1-4.1,3.5c-0.4,2.9-0.6,5.9-1,8.8c-0.1,0.5,0.1,1.3-0.6,1.5
		c-0.8,0.2-1.8,0.3-2.6,0c-0.5-0.2-0.3-0.8-0.3-1.3c0.4-3.3,0.8-6.6,1.1-10c0.4-3.9,1-7.7,1.2-11.6c0.7-4,0.9-8,1.4-12.1
		C60.8,318.9,61,316.7,61.3,314.6z"/>
	<path class="st11" d="M396.9,236.6c0.6,3.2,0.6,6.5,1.4,9.7c0.3,5.1,1.2,10.1,1.8,15.2c0.1,1.1,0.2,2.2,0.3,3.3
		c-0.2,0.5,0.1,1.1-0.4,1.7c-1.2-4.6-2.1-9.2-3-13.8c-0.2-0.9-0.3-1.9-0.6-2.8c-1.2-3.3-0.8-6.6-0.1-9.9
		C396.5,238.9,395.9,237.6,396.9,236.6z"/>
	<path class="st12" d="M424.3,272.6c-0.4-0.8-1.2-1-1.8-1.4c0.2-1.1,0.8-1.3,1.7-0.8c1.9,1.1,3.7,2.2,5.5,3.3
		c0.4,0.3,0.8,0.6,0.5,1.2c-0.2,0.5-0.7,0.7-1.2,0.5c-0.6-0.2-1.1-0.5-1.7-0.9C426.3,273.9,425.4,273,424.3,272.6z"/>
	<path class="st13" d="M75.9,307.1c-2.8,0-5.5,0-8.3-0.1c-0.3-1.2,1-2.1,0.7-3.3c0.5,0.5,0.3,1.2,0.4,1.8c0.1,0.3,0.4,0.5,0.7,0.5
		c0.3,0,0.6-0.2,0.6-0.5c0.1-0.6,0-1.3,0.5-1.8c0.2,1.9,0.2,1.9,2,2C73.8,305.9,75.2,305.7,75.9,307.1z"/>
	<path class="st4" d="M371.9,204.5c-2.6,0-5.3,0-7.9,0c-1.7,0-2-0.2-2.1-1.9c0-1.3-0.6-2.5-0.5-3.8c0-0.7-0.4-1-1-1
		c-0.9,0-1.8-0.3-2.5,0.3c-0.2,0.2-0.1,0.7-0.2,1.1c-0.4,3.3-0.7,6.6-1.1,9.9c-0.8,6-1.6,11.9-2.4,17.9c-0.4,0-0.8-0.1-1.2-0.1
		c-12.2,0-24.5,0-36.7,0c-0.9-0.7-1.8-1.3-2.7-2c-3.8-3.4-7.4-7-11.4-10.2c-1.9-1.6-3.5-3.4-5.6-4.9c-1-0.7-1.8-0.8-2.8-0.4
		c-3.7,1.3-7.4,2.5-11.1,3.7c-6.6,2.2-13.1,4.5-19.7,6.7c-1,1.1-0.3,1.8,0.4,2.6c1.4,1.7,3.5,2.6,4.8,4.4c-0.8,0-1.6,0.1-2.4,0.1
		c-23.3,0-46.5,0-69.8,0c-3,0-3,0-3-3c0-15.7,0-31.3,0-47c0-0.5,0-1,0-1.4c0-0.9,0.4-1.3,1.3-1.3c0.7,0,1.4,0,2.2,0
		c53.6,0,107.3,0,160.9,0c1.1,0,2.2,0,3.4,0c3.9,7.4,9.3,13.6,15.9,18.8c-0.2,1.6-1.5,2.8-2,4.3c-0.6,0.6-1.3,1.2-1.9,1.8
		C370.7,201.2,370.6,201.6,371.9,204.5z M319.3,187.2c-2.2,0-4.3,0-6.5,0.1c-0.8,0-1.6,0.1-2.4,0.2c-1.5,0.3-2.2,1.3-2.2,2.7
		c-0.1,3.4-0.1,6.9,0,10.3c0,1.2,0.4,2.3,1.7,2.5c1.1,0.2,1.1,0.9,1.1,1.8c0,1,0,2,0,3.1c0.9-1,1.5-2,1.9-3c0.5-1.4,1.5-1.8,3-1.8
		c5.7,0.1,11.3,0,17,0c3.1,0,3.9-0.8,4-4c0-0.7,0.1-1.5-0.1-2.1c-0.7-2.4-0.3-4.9-0.3-7.4c0.6,0.8,0.3,1.7,0.3,2.6
		c0,3.7,0,3.8,3.6,3.8c1.3,0,2.1,0.4,2.6,1.6c0.5,1.1,0.8,2.3,2,3.4c0-1.3,0-2.3,0-3.2c0-0.9,0.2-1.6,1.1-1.8
		c1.3-0.4,1.7-1.4,1.7-2.6c0-3.4,0.1-6.7,0-10.1c0-2-0.8-2.7-2.8-2.8c-7.6,0-15.2,0-22.8,0c-2,0-2.9,0.9-3,2.9
		C319.2,184.6,319.3,185.9,319.3,187.2z"/>
	<path class="st6" d="M109.5,161.3c0.5-3.4,1-6.9,1.2-10.4c0-0.6,0.1-1.1-0.2-1.6c0.5-1.7,1.3-3.2,2.6-4.4c0.4-0.4,0.7-0.9,1-1.3
		c0.5-1,0.2-2.1-0.6-2.5c-1-0.6-1.7-0.1-2.3,0.6c-0.6,0.8-1.1,1.7-1.7,2.6c-0.4,0.6-0.9,1.1-1.8,0.5c-0.8-0.6-1,0-0.8,0.6
		c0.2,1.1,0.6,2.1,0.9,3.2c-0.3,3.7-1.2,7.3-2.5,10.8c-0.3,0.7-0.4,1.5-1.1,2.1c-3.1,0-6.2,0-9.3,0c-2.3,0-2.3,0-2.3-2.4
		c0-0.2,0-0.3,0-0.5c0-28.6,0-57.2,0-85.8c0-3.2-0.2-2.9,2.8-2.9c28.6,0,57.2,0,85.8,0c0.3,0,0.6,0,1,0c1.7,0.1,1.7,0.1,1.8,1.7
		c0,0.4,0,0.8,0,1.2c0,28.6,0,57.2,0,85.8c0,3.2,0.2,2.9-2.8,2.9C157.3,161.3,133.4,161.3,109.5,161.3z M128.5,107.3
		c0.3,0.8,1,1.2,1.5,1.8c0.6,0.7,1.2,0.7,1.7,0c1.1-1.6,2.4-1.6,3.8-0.5c0.2,0.2,0.6,0.3,0.9,0.4c1.3,0.2,1.7,0.9,1.6,2.2
		c-0.1,0.6-0.3,1.4,0.4,1.8c0.9,0.5,1.9,0.5,2.8,0.2c0.8-0.2,0.5-1.1,0.5-1.7c-0.1-1.4,0.4-2.1,1.8-2.3c0.5-0.1,1-0.2,1.3-0.5
		c1.2-0.8,2.1-0.6,3.1,0.5c1.1,1.2,1.2,1.1,2.5,0c1.2-1.1,1.3-1.4,0.2-2.4c-1.2-1.1-1.3-2-0.3-3.3c0.2-0.3,0.4-0.7,0.5-1.1
		c0.2-1.5,1-2.1,2.5-1.8c1.2,0.2,1.7-0.3,1.7-1.6c0-1.8-0.1-2-1.6-1.9c-1.5,0.1-2.2-0.4-2.4-1.9c-0.1-0.4-0.2-0.8-0.4-1.1
		c-1-1.3-0.8-2.5,0.6-3.4c1.2-0.8,0.6-1.5-0.1-2.3c-1.3-1.3-1.4-1.5-2.4-0.3c-1.1,1.3-2.1,1.4-3.4,0.4c-0.2-0.2-0.6-0.3-0.9-0.4
		c-1.6-0.2-2.2-1.1-1.9-2.7c0.2-1.3-0.4-1.7-1.6-1.6c-1.8,0-2.1,0-2,1.5c0.1,1.7-0.5,2.5-2.2,2.8c-0.4,0.1-0.8,0.3-1.1,0.5
		c-1,0.7-1.9,0.6-2.7-0.4c-1.4-1.7-1.6-1.2-2.8,0c-0.3,0.3-0.6,0.7-1,1.1c0.5,1.1,2,1.6,2,2.7c0,1.1-1,2.1-1.3,3.3
		c-0.3,1.2-0.9,1.5-2.1,1.4c-0.6,0-1.4-0.3-1.8,0.3c-0.5,0.8-0.3,1.7-0.2,2.6c0.1,0.9,1,0.7,1.6,0.6c1.5-0.2,2.2,0.5,2.4,1.9
		c0.2,1,1,1.9,1,2.9C130.4,105.8,128.9,106.2,128.5,107.3z M123.4,97.6c-0.3-0.3-0.6-0.5-0.8-0.7c-0.8-0.8-1.6-1.1-2.3,0.2
		c-1,1.9-2.4,0.3-3.6,0.4c-1.2,0.1-1.4-0.8-1.5-1.8c-0.1-1.2-0.9-1.1-1.7-1c-0.9,0.1-1.4,0.4-1.2,1.3c0.4,1.6-0.6,2-1.6,2.7
		c-1.1,0.7-2,1.3-3.1,0.1c-0.8-0.8-1.3-0.2-1.7,0.4c-0.4,0.6-1.1,1.3-0.1,2c0.5,0.3,1.3,0.6,1.2,1.3c-0.1,1.1-0.4,2.2-0.8,3.2
		c-0.2,0.7-1.1,0.6-1.7,0.7c-1.4,0.3-0.9,1.3-0.8,2.1c0,0.9,0.6,1,1.3,0.9c0.5-0.1,1.2-0.5,1.6,0c0.7,0.9,1.4,2,1.9,3
		c0.4,0.7-0.4,1.1-0.8,1.6c-0.7,1,0,1.4,0.6,1.9c0.6,0.5,1.2,0.8,1.7-0.1c0.6-1.2,1.5-1.5,2.8-0.9c1,0.5,2.5,0,2.5,1.9
		c0,1.2,0.7,1.4,1.8,1.2c1.1-0.2,1.4-0.8,1.1-1.9c-0.1-0.4-0.4-0.9,0-1.1c1-0.7,2-1.4,3-1.9c0.7-0.4,1.2,0.3,1.6,0.7
		c1,0.8,1.4,0.1,1.9-0.6c0.5-0.7,0.9-1.4-0.1-1.9c-1.2-0.6-1.3-1.4-0.8-2.5c0.1-0.3,0.3-0.6,0.3-0.9c0-1.2,0.6-1.8,1.7-1.8
		c0.9,0,1.3-0.4,1.2-1.4c-0.1-0.9-0.3-1.8-1.6-1.6c-0.6,0.1-1.3,0.4-1.8-0.3c-0.6-0.9-1.3-1.8-1.7-2.9c-0.2-0.8,0.8-1.3,1.1-2
		C123.3,97.9,123.3,97.8,123.4,97.6z"/>
	<path class="st14" d="M235.7,91.1c0,6.3,0,12.6,0,18.9c0,2.2,0,2.3-2.3,2.3c-12.6,0-25.3,0-37.9,0c-2.4,0-2.6-0.2-2.6-2.6
		c0-12.5,0-25.1,0-37.6c0-0.4,0-0.8,0-1.2c0-0.8,0.3-1.2,1.1-1.2c0.5,0,1,0,1.4,0c12.5,0,24.9,0,37.4,0c0.4,0,0.8,0,1.2,0
		c1.2-0.1,1.5,0.5,1.5,1.6c0,2.6,0,5.3,0,7.9C235.7,83.1,235.7,87.1,235.7,91.1z"/>
	<path class="st2" d="M312,69.7c6.3,0,12.6,0,18.9,0c2.1,0,2.1,0,2.1,2.1c0,12.8,0,25.6,0,38.3c0,2.2,0,2.2-2.3,2.2
		c-12.6,0-25.2,0-37.9,0c-2.4,0-2.4-0.1-2.4-2.4c0-12.7,0-25.4,0-38.1c0-2.1,0-2.1,2.1-2.1C299.1,69.7,305.5,69.7,312,69.7z"/>
	<path class="st6" d="M360.7,112.3c-6.4,0-12.8,0-19.2,0c-2.2,0-2.2,0-2.2-2c0-12.9,0-25.7,0-38.6c0-1.9,0-1.9,2-1.9
		c12.8,0,25.6,0,38.4,0c2.1,0,2.1,0,2.1,2.1c0,12.8,0,25.6,0,38.4c0,2,0,2.1-2.2,2.1C373.3,112.3,367,112.3,360.7,112.3z"/>
	<path class="st5" d="M284.2,91.1c0,6.2,0,12.5,0,18.7c0,2.4,0,2.4-2.3,2.4c-12.6,0-25.1,0-37.7,0c-2.3,0-2.3,0-2.3-2.4
		c0-12.6,0-25.3,0-37.9c0-2.3,0-2.3,2.4-2.3c12.5,0,24.9,0,37.4,0c0.3,0,0.6,0,1,0c1.2-0.1,1.5,0.5,1.5,1.6c0,3.3,0,6.6,0,9.8
		C284.2,84.4,284.2,87.8,284.2,91.1z"/>
	<path class="st14" d="M311.6,160.8c-6.3,0-12.6,0-18.9,0c-2.3,0-2.3,0-2.3-2.2c0-12.6,0-25.2,0-37.9c0-2.1,0-2.1,2.2-2.1
		c12.8,0,25.6,0,38.3,0c2.1,0,2.2,0,2.2,2.1c0,12.6,0,25.2,0,37.9c0,2.2,0,2.2-2.3,2.2C324.4,160.8,318,160.8,311.6,160.8z"/>
	<path class="st6" d="M193.1,139.5c0-6.3,0-12.6,0-18.9c0-2,0-2,2-2c12.9,0,25.7,0,38.6,0c1.9,0,2,0,2,2c0,12.8,0,25.6,0,38.4
		c0,2,0,2-1.9,2c-12.9,0-25.7,0-38.6,0c-2,0-2,0-2-2C193.1,152.4,193.1,145.9,193.1,139.5z"/>
	<path class="st14" d="M241.9,139.7c0-6.1,0-12.1,0-18.2c0-0.6,0-1.1,0-1.7c0-0.8,0.4-1.2,1.2-1.2c0.5,0,1,0,1.4,0
		c12.3,0,24.6,0,36.9,0c0.5,0,1,0,1.4,0c0.9,0,1.3,0.5,1.3,1.3c0,0.5,0,1,0,1.4c0,12.2,0,24.4,0,36.7c0,0.4,0,0.8,0,1.2
		c0.1,1.1-0.4,1.6-1.5,1.6c-0.3,0-0.6,0-1,0c-12.4,0-24.8,0-37.1,0c-0.5,0-1,0-1.4,0c-0.8,0-1.1-0.5-1.1-1.2c0-1,0-2.1,0-3.1
		C241.9,150.9,241.9,145.3,241.9,139.7z"/>
	<path class="st5" d="M388.2,158.4c-1.5-1.5-2.8-3.1-5.1-3.5c-3.2-0.6-6.3,0.9-7.5,3.8c-0.3,0.8-0.5,1.6-0.8,2.5
		c-2.6,0.3-5.1,1-7.6,1.6c-1.6,0.4-3.4,0.3-4.9,1.4c-0.6-0.6-0.6-1.4-0.9-2.2c-1.3-3.3-1.6-6.9-2.8-10.3c0-1.7,1.3-3.2,1.2-5
		c-2.3,0.2-2.2,0.2-3.6-1.8c-0.4-0.6-0.8-1.2-1.3-1.7c-0.6-0.6-1.4-0.8-2.1-0.3c-0.7,0.5-1.1,1.3-0.7,2.3c0.3,0.8,0.9,1.3,1.4,1.9
		c1.1,1.3,2.3,2.7,2.2,4.6c0.1,4.6,0.7,9.1,1.8,13.5c-3,0.1-5.7,1.2-8.6,1.7c-1.6,0.3-2,0.1-2.3-1.5c-0.6-2.9-1.3-5.7-1.9-8.6
		c-2.1-9.8-4.2-19.5-6.3-29.3c-0.1-0.5-0.4-0.7-0.8-0.8c0.2-0.9,0.9-1.2,1.7-1.4c11.9-2.6,23.8-5.2,35.7-7.7c0.2,0,0.3-0.1,0.5-0.1
		c1.3-0.2,2.7-1.3,3.9-0.5c1,0.7,0.8,2.3,1.1,3.5c2.6,11.9,5.3,23.8,7.8,35.6C388.3,156.9,388.8,157.7,388.2,158.4z"/>
	<path class="st2" d="M358.6,151.7c1.1,3.4,1.4,7,2.8,10.3c0.3,0.7,0.3,1.6,0.9,2.2c0.2,0.4,0.4,0.9,0.6,1.3
		c1.1,3.2,2.6,6.2,4.8,8.8c0.1,0.2,0.1,0.5,0.2,0.7c3.4,4.9,7.6,8.9,13.2,11.2c1.5,0.8,3,1.5,4.8,1.5c1.9,0.6,3.9,1.2,5.8,1.7
		c2.6,1.3,4.8,2.9,5.5,5.9c0.5,2,0.5,4-0.1,5.9c-0.8,3.1-1.7,6.1-2.6,9.2c-0.3,1-0.5,2-0.5,3.1c-0.4,0.3-0.4,0.6-0.4,1
		c-0.2,2.6-0.8,5.2-0.4,7.8c0.2,1.2-0.3,1.7-1.1,2.2c-0.3,0-0.6,0.1-1,0.1c-2.2,0.7-4.4,0.9-6.7,1.4c-0.3,0-0.6,0-0.9,0.1
		c-1.7,0-3.3,0-5-0.1c-0.7,0-1.4-0.1-2.1-0.2c-2.2-0.5-2.3-0.7-1.8-2.9c0.4-1.9,0.8-3.7,1.1-5.6c0.1-0.2,0.1-0.3,0-0.5
		c0.6-2.2,0.9-4.3,0.7-6.6c-0.1-1.5-0.6-2.6-1.8-3.4c-0.5-0.4-1.1-0.7-1.6-1.1c-0.4-0.5-0.7-0.9-1.1-1.4c-1.2-2.9-1.2-3.3,1-5.5
		c0.6-0.6,1.3-1.2,1.9-1.8c1.7-0.5,3.3-0.9,5.1-0.9c0.9,0,1.8,0,2.6-1.1c-2.1-0.6-3.9-1.4-5.7-2.2c-6.6-5.2-12-11.4-15.9-18.8
		c-1.1-2.5-2.2-5.1-2.9-7.7c-0.1-0.5-0.3-0.9-0.4-1.4c-1.1-4.4-1.7-8.9-1.8-13.5C356.7,152.4,357.7,152.1,358.6,151.7z M389.4,190.9
		c-0.2,0.6,0.3,0.8,0.7,1.1c2.6,1.8,3.5,4.2,2.7,7.3c-0.1,0.3-0.2,0.6-0.2,0.9c-0.1,0.9,0.1,1.7,1.1,1.8c0.9,0.2,1.2-0.5,1.5-1.2
		c0.6-1.5,0.5-3,0.3-4.5C395,193.3,392.4,191.1,389.4,190.9z"/>
	<path class="st15" d="M138.3,209.8c14.1,0,28.3,0,42.4,0c0.5,0,1,0,1.4,0c1.7,0.1,1.8,0.1,1.8,1.7c0,4.2,0.4,3.5-3.4,3.5
		c-28.3,0-56.6,0-84.8,0c-3.5,0-3.1,0.5-3.1-3c0-2.2,0-2.2,2.3-2.2C109.4,209.8,123.9,209.8,138.3,209.8z"/>
	<path class="st15" d="M92.6,187.7c0.4-0.7,0.9-1.2,1.6-1.6c1,0,2.1,0.1,3.1,0.1c28,0,55.9,0,83.9,0c3,0,2.8-0.3,2.8,2.9
		c0,0.5,0,1,0,1.4c0,0.6-0.4,0.9-0.9,0.9c-0.6,0-1.3,0-1.9,0c-28.5,0-57,0-85.5,0c-3.2,0-2.9,0.3-2.9-2.8
		C92.7,188.3,92.7,188,92.6,187.7z"/>
	<path class="st15" d="M93.7,226.6c0.9-0.5,1.6-1,0.6-2.2c-0.6-0.7-1-1.6-1.1-2.5c1.9,0,3.8,0,5.8,0c27.4,0,54.8,0,82.2,0
		c3,0,2.8-0.4,2.8,2.8c0,0.4,0,0.8,0,1.2c0,0.8-0.3,1.2-1.1,1.2c-0.7,0-1.4,0-2.2,0c-27.9,0-55.8,0-83.6,0c-0.7,0-1.4,0-2.2,0
		c-0.7,0-0.7,0.5-0.8,1C93.6,227.6,93.7,227.1,93.7,226.6z"/>
	<path class="st15" d="M100.9,179.4c0.6-2.1,2.2-3.5,3.4-5.2c2.6,0,5.1,0.1,7.7,0.1c23.1,0,46.2,0,69.3,0c3,0,2.8-0.3,2.8,2.9
		c0,0.4,0,0.8,0,1.2c0,0.8-0.4,1.2-1.2,1.2c-0.4,0-0.8,0-1.2,0c-26.5,0-53.1,0-79.6,0C101.7,179.5,101.3,179.5,100.9,179.4z"/>
	<path class="st15" d="M92.7,202.9c0.9-1.7,2.7-2.6,3.5-4.4c0.2-0.4,0.7-0.3,1.1-0.3c0.6,0,1.3,0,1.9,0c27.2,0,54.5,0,81.7,0
		c1,0,1.9,0,2.9,0c0.3,1.3,0.1,2.5,0.2,3.8c0,0.8-0.4,1.1-1.2,1.1c-0.6,0-1.1,0-1.7,0c-28.6,0-57.2,0-85.8,0
		C94.5,203.1,93.6,203.2,92.7,202.9z"/>
	<path class="st16" d="M281.4,247.3c-0.1-0.7-0.2-1.4-0.2-2.1c0.4-1.5-0.6-2.9,0.1-4.4c0.7-0.2,1.3-0.3,2-0.5c0.4,0,0.7,0.2,0.9,0.5
		c0,0.7-0.1,1.4,0.4,1.9c0.3,1.3,0.4,2.7,0.9,3.9c0.2,1.6,0.4,3.2,0.5,4.8c0.7,8.9-0.9,17.3-4.8,25.3c-1,1.2-2.2,1.9-3.8,2
		c-0.5-0.7-0.8-1.6-1-2.4c0.4-0.3,0.9-0.5,1.1-1c1.2-0.6,2-1.6,2.4-2.9c0.9-1.3,1.3-2.7,1.4-4.2c0.1-0.8,0.2-1.6,1.1-1.9
		c0.5-0.1,0.9-0.7,0.4-1.1c-2-1.3-1.8-3.4-2.1-5.3c0.2-1.3,0.7-2.6,0.5-3.9c0.5-1.3,1.4-2.6,1-4
		C281.8,250.6,281.8,248.9,281.4,247.3z"/>
	<path class="st17" d="M357.5,165.2c0.1,0.5,0.3,0.9,0.4,1.4c-3.2,0.7-6.4,1.4-9.6,2.1c-1.9,0.4-2,0.4-2.4-1.4
		c-1.6-7.1-3.1-14.2-4.7-21.2c-1.2-5.5-2.4-11.1-3.6-16.6c-0.2-0.9-0.4-1.7-0.1-2.6c0.4,0.1,0.7,0.3,0.8,0.8
		c2.1,9.8,4.2,19.5,6.3,29.3c0.6,2.9,1.3,5.7,1.9,8.6c0.4,1.6,0.7,1.7,2.3,1.5C351.8,166.3,354.6,165.3,357.5,165.2z"/>
	<path class="st18" d="M284.2,240.9c-0.2-0.3-0.5-0.5-0.9-0.5c-1.8-2.3-4-4-6.3-5.8c-2.7-2.8-5.7-5.3-8.7-7.8
		c-1.3-1.8-3.4-2.8-4.8-4.4c-0.7-0.8-1.4-1.5-0.4-2.6c0.3,0.3,0.5,0.7,0.8,0.9c3.7,3.3,7.4,6.5,11.1,9.7c4.3,3.8,8.5,7.7,12.8,11.5
		c0.6,0.5,0.8,1.1,0.9,1.9c0,0.2,0,0.4-0.1,0.5c-1.5-0.4-2.1-1.8-3.3-2.5C285,241.4,284.6,241.1,284.2,240.9z"/>
	<path class="st19" d="M91.9,191.9c-0.2,0.3-0.6,0.5-1,0.6c-1.9,0.1-3.7-0.4-5.5-1.2c1.8-0.5,3.2-2.2,5.4-1.7
		C91.1,190.4,91.5,191.1,91.9,191.9z"/>
	<path class="st20" d="M97,174.3c-0.9,2-2.5,3.2-4.2,4.2C92.7,173.5,92,174.3,97,174.3z"/>
	<path class="st21" d="M277,234.6c2.3,1.7,4.5,3.5,6.3,5.8c-0.7,0.2-1.3,0.3-2,0.5c-0.2-1.5-1.2-2.5-2.4-3.3
		C277.8,236.9,276.8,236.2,277,234.6z"/>
	<path class="st22" d="M341.7,325.4c0.8-3.3,1-6.8,1.4-10.2c1.3-9.8,2.5-19.6,3.7-29.4c1.2-9.4,2.4-18.8,3.5-28.3
		c0.4-3.1,1-6.1,1-9.3c0.7-1.3,0.4-2.8,0.6-4.2c0.8-5.6,1.4-11.3,2.1-17c0.8-6,1.6-11.9,2.4-17.9c0.4-3.3,0.7-6.6,1.1-9.9
		c1.3,1.9,0.9,4.2,1.2,6.4c0.4,2.3,0.9,4.6,0.6,7c-0.4,1.3-0.6,2.5-0.5,3.8c0.3,0.7,1.6,0.3,1.4,1.4c-0.8,0-1.8-0.2-1.9,1.2
		c-0.3,2.7-0.6,5.3-0.9,8c-0.1,0.6-0.2,1.2,0,1.9c1.1,1,2.6,0.1,3.8,0.9c-0.9,0-1.7,0-2.6,0c-0.6,0-1.3-0.2-1.6,0.6
		c-0.4,3.1-0.7,6.3-1.1,9.4c-0.1,1,0.2,1.4,1.3,1.4c1.8,0,3.6,0,5.5,0.1c0.3,0.7-0.2,0.6-0.6,0.6c-1.6,0-3.2,0-4.8,0
		c-0.6,0-1.3-0.2-1.7,0.6c-0.1,1.6-0.7,3.1-0.5,4.7c-0.3,2-0.6,4.1-0.9,6.1c0.5,1,1.4,0.6,2.1,0.6c2.6,0,5.2,0,7.9,0.4
		c-2.9,0-5.7,0-8.6,0c-1.8,0-1.8,0.1-1.9,2.1c-0.3,2.4-0.5,4.7-0.8,7.1c-0.3,2.3-0.3,2.3,2.1,2.3c3.7,0,7.3,0,11,0
		c0.5,0.3,0.2,0.7,0.1,1c-4,0-8,0.1-11.9,0c-1.2,0-1.8,0.3-1.9,1.5c-0.3,3.2-0.7,6.3-1,9.5c0.6,0.8,1.5,0.5,2.2,0.5
		c3.9,0,7.8,0,11.8,0c0.8,0,1.5,0,2.3,0c0,0.1,0,0.3,0,0.4c-2,0-4,0-5.9,0c-3,0-5.9,0-8.9,0c-0.7,0-1.5-0.3-1.9,0.6
		c-0.4,3.1-0.7,6.1-1.1,9.2c-0.1,1,0,1.6,1.3,1.6c6.1-0.1,12.2-0.1,18.3-0.1c0,0.4,0,0.8,0,1.2c-6,0-12.1,0-18.1,0
		c-1.8,0-1.8,0-2.1,1.7c-0.3,2.3-0.6,4.6-1,6.8c-0.5,0.4-0.4,1-0.5,1.5c-0.1,0.9,0.3,1.3,1.2,1.3c1,0,2.1,0,3.1,0c6,0,12.1,0,18.3,0
		c-0.7,0.7-1.4,0.4-2,0.4c-6.1,0-12.1,0-18.2,0c-0.8,0-1.8-0.4-2.4,0.5c-0.4,3.6-0.9,7.1-1.4,10.9c8.7,0,17.2,0,25.8,0
		c0,0.4,0,0.7,0,1.1c-1,0-1.9,0-2.9,0c-7.1,0-14.2,0-21.3,0c-0.8,0-1.8-0.3-1.9,1.1c-0.4,3.2-0.8,6.4-1.2,9.6
		c0.9,0.5,1.7,0.3,2.5,0.3c6.9,0,13.9,0,20.8,0c1.3,0,2.8,0.5,3.7-0.3c0.9-0.8,0.5-2.4,0.8-3.6c0.5,0.3,0.9,0.7,0.9,1.3
		c0.1,2.7,0.5,5.3,1,8c0.3,1.6-0.8,3.1-0.4,4.7c0,0.8,0,1.5,0,2.3c-0.7,5-1.3,10-2,14.9c-0.1,1-0.1,1.9-1.5,1.9
		c-2,0-2.1,0.1-1.9-2.1c0.4-3.6,0.9-7.1,1.3-10.7c0.1-0.7,0.1-1.4,0.2-2.1c0-0.6-0.3-0.9-0.9-0.9c-0.5,0-1,0-1.4,0
		c-7.5,0-15,0-22.5,0c-2.2,0-2.4-0.4-2.7,2.5c-0.4,3.7-0.9,7.4-1.4,11.2c-0.3,2.2-0.2,2.2-2.5,2.1c-0.3,0-0.6-0.1-1.2-0.1
		c0.3-2.6,0.6-5.2,0.9-7.8c0.9-7,1.8-13.9,2.7-20.9C341.7,326.6,341.7,326,341.7,325.4z M343.6,339.2c1.2,0,2,0,2.8,0c7,0,14,0,21,0
		c3.4,0,3.5,0,3.9-3.2c0.3-2.6,0.9-5.1,0.8-7.8c-1,0-1.7,0-2.5,0c-7.3,0-14.5,0-21.8,0c-0.6,0-1.1,0-1.7,0c-0.8,0-1.2,0.3-1.3,1.1
		C344.4,332.5,344,335.7,343.6,339.2z"/>
	<path class="st2" d="M264.2,321.6c1.6-1.3,2.3-3.2,3.3-4.9c3.8,0.2,7.5-0.6,11.3-0.5c0.2,0,0.3,0,0.5,0c0,0.1,0.1,0.3,0.1,0.4
		c0,0.4,0,0.8,0.4,1c0.9,2.3,0.9,4.8,1.5,7.1c0.5,2.4,0.4,5,1.4,7.3c1,2,1.7,2.4,3.7,1.5c5.8-2.9,11.7-5.9,17.5-8.9
		c1.8-0.9,3.6-2,5.6-2.7c0.5-0.2,1-0.4,1.5,0.1c0.5,0.5,0.2,1,0.1,1.6c-0.1,0.2-0.2,0.5-0.3,0.7c-1.5,2.7-3.1,5.4-4.6,8.1
		c-1.7,3.2-3.9,6.2-5.2,9.6c-1.2,1-1.6,2.5-2.4,3.8c-1.5,2.6-3.3,5-4.4,7.8c-0.3,0-0.7,0-1,0c2.4-5,4.7-9.9,7.1-14.9
		c0.6-1.3,1.3-2.5,1.7-4.4c-5.1,3.8-10.5,5.9-16.3,6.8c-2.5,0.4-5.1,0.5-7.7,0.5c-4.2,0-8.1-1.6-12.2-2.1c-0.7-0.1-1.3-0.6-1.9-1
		c-1.8-1.5-2.7-3.5-2.8-5.8c-0.2-3,0.9-5.6,2.1-8.2C263.6,323.6,264.4,322.8,264.2,321.6z M267.9,326.8c-1,5.9-0.7,10.1,1.2,11.8
		c-1.2-3.9-0.7-7.6-0.7-11.3c0.8-2.4,1.7-4.7,2.9-6.9c0.2-0.3,0.8-0.6,0.3-1.1C270.1,320.9,268.7,323.8,267.9,326.8z"/>
	<path class="st23" d="M149.3,363.7c-0.7,0.8-1.6,0.6-2.4,0.2c-7.2-3.8-14.4-7.5-21.6-11.3c0-8,0-16,0-24.4c2.7,1.4,5,2.6,7.3,3.8
		c4.7,2.4,9.3,4.9,13.9,7.3c0.4,0.2,0.9,0.4,1.2-0.1c0.1,0,0.3,0,0.4,0c0.2,0.2,0.3,0.3,0.5,0.5c-0.2,0.5-0.5,1-0.5,1.6
		c0,7,0,14,0,21C148.4,363.1,148.5,363.7,149.3,363.7z"/>
	<path class="st24" d="M149.3,363.7c-0.8-0.1-1-0.7-1-1.4c0-7,0-14,0-21c0-0.6,0.3-1.1,0.5-1.6c0,0,0,0,0,0c0.2-0.1,0.3-0.3,0.5-0.4
		c3.7-1.9,7.5-3.8,11.2-5.8c3.4-1.8,6.8-3.7,10.4-5.3c0,7.6,0,15.2,0.1,22.7c0,1.2-0.4,1.9-1.5,2.4
		C162.8,356.8,156.1,360.3,149.3,363.7z M155.6,355.6c0.4-0.1,0.4-0.3,0-0.5c-0.2-0.1-0.3-0.3-0.5-0.4c0.3-0.2,0.7-0.3,0.6-1.1
		c-0.8,0.4-1.7,0.6-2.1,1.5l0,0c-1,0.1-1.9,0.5-2.4,1.4c-0.1,0.1-0.2,0.2-0.2,0.3c0.1-0.1,0.2-0.1,0.3-0.2c0.3,0,0.6,0,0.9,0
		c0.2,0.1,0.3,0.3,0.5,0.4c-0.5,0.5-1.3,0.6-1.9,1.7c1.2-0.5,2-0.7,2.4-1.6l0,0C154.2,356.9,155.1,356.5,155.6,355.6L155.6,355.6z
		 M168.3,347.5c-2.7,1.3-2.7,1.3-2.4,3.4C168.5,349.7,168.5,349.7,168.3,347.5z M151.1,360c1.6-1,3.6-1.4,4.7-3.1
		C154,357.8,152.3,358.5,151.1,360z"/>
	<path class="st2" d="M285.7,314.9c0.6,1.6,0.8,3.4,1.7,5.1c3.5-1.2,6.9-2.2,10.5-3c4.7-1,9.4-1.9,14.2-1.8c4.8,0.1,6.8,2.1,6.6,6.9
		c0,0.2,0,0.5,0,0.7c-4.2,7.8-10,14.5-15.4,21.4c-2.4,3.1-4.7,6.2-7.5,8.9c-0.1-0.1-0.1-0.1-0.2-0.2c0.3-1.1,0.9-2,1.5-2.9
		c1.5-2.5,2.9-5,4.4-7.5c3.2-5,6.3-10,9-15.2c0.8-1.5,1.8-2.8,2.3-4.5c0.5-1.7-0.1-2.5-1.8-2.4c-1.3,0-2.5,0.6-3.6,1.2
		c-0.7,0.4-1.4,0.8-2.1,1.2c-6.2,3.1-12.4,6.2-18.6,9.4c-2.2,1.1-2.2,1.1-3.4-1.2c-0.1-0.5-0.2-0.9-0.2-1.4
		c-0.3-2.6-1.1-5.1-0.7-7.7c0.8-0.4,1.2-1.1,1.6-1.9c0.9-1.6,1-3.4,1.2-5.2C285.3,314.9,285.5,314.9,285.7,314.9z"/>
	<path class="st6" d="M96.5,314c0.3,4.6,0.8,9.2,1.5,13.8c0.2,3.9,0.8,7.8,1.2,11.7c0.5,4.9,1.1,9.8,1.6,14.8
		c0.1,0.6,0.4,1.4-0.3,1.7c-0.8,0.3-1.7,0.3-2.6,0c-0.5-0.2-0.4-0.8-0.5-1.3c-0.4-3.3-0.7-6.5-1.1-9.8c-0.3-2.6-0.4-2.6-3-2.6
		c-0.3,0-0.6,0-1,0c-1.2,0-2.6-0.5-3.5,0.9c-0.1-0.7-0.5-0.9-1.2-0.9c-5.9,0-11.8,0-17.7,0c-1.2,0-1.3,0.6-1.2,1.5
		c0.4,3.5,0.8,7,1.2,10.5c0.1,0.6,0.4,1.4-0.3,1.7c-0.8,0.3-1.7,0.3-2.6,0c-0.5-0.2-0.4-0.8-0.5-1.3c-0.5-4.1-0.9-8.2-1.4-12.4
		c0-0.4-0.1-0.8-0.5-1.1c0.3-2.3-0.1-4.5-0.5-6.7c0-1.2,0.1-2.4-0.4-3.5c0.1-0.8-0.4-0.9-1-0.8c0.7-0.5,0.5-1,0-1.5
		c0.8,0.2,1-0.2,0.9-0.8c0-0.4,0.1-0.9-0.1-1c-0.4-0.2-0.5,0.4-0.8,0.6c0.8-4-0.4-7.9-0.5-11.9c0-0.6-0.2-1.1-1-1.1
		c1.4-0.9,2.8-0.6,4.2-0.2c0.3,2.3,0.3,2.4,1.7,2.4c7.6,0,15.2,0,22.9,0c1.1,0,1.6-0.3,1.6-1.5c0-0.3,0.1-0.6,0.2-0.9
		c0,0,0.2,0,0.2,0c0.2,0.7-0.3,1.7,0.5,2.3c0.5-1.4,0.5-1.4,0-2.6C94,314,95.3,314,96.5,314z M93.7,328.3c0-0.3-0.1-0.7,0-0.9
		c0.9-2.6,0-5.3,0-7.9c0-1.6-0.4-1.8-2-1.2c-0.6-0.7-1.5-0.5-2.2-0.5c-4.5,0-8.9,0-13.4,0c-2.7,0-5.4,0-8.1,0
		c-1.7,0-1.7,0.1-1.6,1.8c0.2,2.5,0.5,4.9,0.8,7.4c0.2,1.9,0.3,1.9,2.2,1.9c6.4,0,12.8,0,19.1,0c1.4,0,2-0.4,2.3-1.7
		c0.1,1.1,0.4,1.7,1.7,1.6c0.4-0.1,0.9,0,1.4,0c0.9-0.4,0.9-0.4,0.6-1.8C94.2,327.4,93.9,327.8,93.7,328.3z M92.7,338.8
		c0.1,2.3,0.5,2.8,2.5,2.4c0.6-0.1,0.8-0.4,0.7-1c-0.3-3-0.7-6-1-9c-0.1-0.4-0.1-1-0.9-0.9c-0.5,0.8-0.1,2-0.7,2.9
		c-0.2-3-0.2-3-3-2.9c-1.9-0.1-3.8-0.2-5.7,0c-2.9,0-5.7-0.1-8.6-0.1c-2.8,0-5.6-0.1-8.6,0c0.2,1,0.3,1.7,0.4,2.4
		c0,2.4,0.5,4.7,0.7,7.1c0.1,1.1,0.5,1.5,1.7,1.5c5.8-0.1,11.6,0,17.5,0c0.8,0,1.4-0.3,1.7-1c0.2,1.2,1.1,1.1,2,1
		c0.9,0,0.9-0.7,0.9-1.3C92.3,339.4,92.4,339.1,92.7,338.8z"/>
	<path class="st2" d="M221.3,322.5c7.2-2.3,14.4-4.7,21.6-7c0.6-0.2,1.2-0.4,1.8-0.6c0.7-0.2,1.3-0.1,1.8,0.4
		c1.3,1.4,3.1,2.3,4.2,3.9c-0.6,0.6-1.4,0.7-2.2,0.9c-6.9,2.3-13.8,4.6-20.7,6.9c-0.8,0.3-1.9,0.1-2.1,1.3c-0.4,1.1,0.4,1.6,1,2.2
		c1.9,1.7,3.8,3.4,5.7,5.1c4,3.6,8,7.3,12,10.9c-1.8,1.1-3.8,1.6-5.8,2c-8-7.1-15.9-14.2-23.9-21.3c-0.6-0.5-1.1-1.2-1.9-1.3
		c2.3-1.4,5-1.9,7.5-2.8C220.6,322.9,221,322.8,221.3,322.5z"/>
	<path class="st5" d="M204,337.3c1.7-1.9,4.1-2.6,6.1-3.9c1.8-1.2,3.7-2.2,5.5-3.2c1.2,0.7,2.1,1.6,3.1,2.5
		c6.5,5.8,12.9,11.5,19.4,17.3c1.7,0.3,3.1-1,4.8-1.1c-0.2,0.4-0.6,0.7-1,1c-2.1,1.2-4.1,2.5-6.2,3.6c-1.1,0.6-1.5,1.3-1.4,2.5
		c-0.4,0.2-0.7,0.1-0.9-0.3c1-1.2,0-1.6-0.8-2.1c-8-4.6-16-9.3-24-13.9C207,338.8,205.8,337.6,204,337.3z"/>
	<path class="st25" d="M147.9,339.3c-0.4,0.5-0.8,0.3-1.2,0.1c-4.6-2.5-9.3-4.9-13.9-7.3c-2.3-1.2-4.6-2.4-7.3-3.8
		c0,8.4,0,16.4,0,24.4c-0.9-0.7-0.5-1.6-0.5-2.5c0-7,0-13.9,0-20.9c0-1.3-0.3-2.4-1.4-3.1c-0.4-0.9-1-1.7-1.8-2.4
		c-0.9-0.8-0.2-1.3,0.3-1.8c0.8,0.9,1.7,1.6,2.8,2.1c1.5,0.7,3,1.5,4.5,2.2c4.5,2.3,9,4.8,13.6,7c2.3,1.1,4.1,2.4,4.6,5
		C147.4,338.7,147.5,339.1,147.9,339.3L147.9,339.3z"/>
	<path class="st25" d="M170.9,328.2c-3.6,1.6-6.9,3.5-10.4,5.3c-3.7,1.9-7.5,3.9-11.2,5.8c-0.2,0.1-0.3,0.3-0.5,0.4c0,0,0,0,0,0
		c-0.2-0.2-0.3-0.3-0.5-0.5c0-0.1,0-0.3,0-0.4c0.2-0.2,0.3-0.3,0.5-0.5c0-0.2,0-0.3,0-0.5c0.8-1,0.7-2.6,2.1-3.3
		c1.9-0.9,3.8-2,5.7-3c3.5-1.8,6.9-3.5,10.4-5.3c1.6-0.8,3.2-1.6,4.9-2.4c1-0.4,1.7-1.1,2.3-1.9c0.3,0.5,1.2,0.7,0.5,1.5
		C173.4,325,172.1,326.6,170.9,328.2z"/>
	<path class="st26" d="M278,341.7c2.6,0,5.1-0.1,7.7-0.5c-2.2,3.3-5,6.1-7.6,9.1c-1,1.2-2.2,2.3-3.3,3.5c-0.8,0.3-1.6-0.2-2.3-0.1
		c1.2-2.4,2.3-4.8,3.5-7.2c0.4-0.8,0.9-1.5,1-2.4c0.2-0.3,0.4-0.7,0.5-1C278,342.8,277.9,342.2,278,341.7z"/>
	<path class="st27" d="M238.2,350c-6.5-5.8-12.9-11.5-19.4-17.3c-1-0.9-2-1.8-3.1-2.5c-0.6-1-1.5-1.6-2.3-2.3
		c-0.7-0.6-0.8-1.3-0.6-2.1c0.9,0.1,1.4,0.8,1.9,1.3c8,7.1,15.9,14.2,23.9,21.3C238.6,349,238.7,349.6,238.2,350z"/>
	<path class="st28" d="M204,337.3c1.7,0.3,3,1.5,4.4,2.3c8,4.6,16,9.2,24,13.9c0.9,0.5,1.8,0.9,0.8,2.1c-9.3-5.4-18.6-10.7-28-16.1
		C204.5,339,203.7,338.5,204,337.3z"/>
	<path class="st29" d="M244.4,346.4c-4-3.6-8-7.3-12-10.9c-1.9-1.7-3.8-3.4-5.7-5.1c-0.7-0.6-1.4-1.1-1-2.2c1.2,0.3,2.1,1.1,3,1.9
		c3.8,3.4,7.4,7,11.3,10.3c2,1.7,3.8,3.6,5.9,5.2c2,1.5,3.7,3.4,5.6,5.2c0,0.6-0.3,0.9-0.9,0.9c-1.2-1-2.4-2-3.6-2.9
		c-0.2-0.5-0.6-0.6-1-0.9C245.7,347.3,245.1,346.9,244.4,346.4z"/>
	<path class="st30" d="M88.9,343.1c0.9-1.4,2.3-0.9,3.5-0.9c-0.4,3.5-0.8,6.9-1.2,10.4c-0.1,0.8-0.2,1.6-0.3,2.4
		c-0.1,0.5-0.1,1-0.7,1.1c-0.9,0-1.8,0.3-2.5-0.2c-0.4-0.3-0.2-0.9-0.1-1.3C88,350.7,88.5,346.9,88.9,343.1z"/>
	<path class="st31" d="M250.7,351.7c0.6,0,0.9-0.4,0.9-0.9c1.3-0.4,2.6-0.8,3.9-1.2c6.7-2.1,13.3-4.6,20.1-6.5
		c0.7-0.2,1.3-0.7,1.9,0.1c-0.2,0.3-0.4,0.7-0.5,1c-7.1,2.3-14.2,4.6-21.2,6.9c-1.1,0.3-2.1,0.7-3.2,1.1
		C251.9,352.3,251.1,352.6,250.7,351.7z"/>
	<path class="st32" d="M246.1,347.9c0.4,0.2,0.8,0.4,1,0.9c-3.5,1.4-6.5,3.7-9.8,5.4c-1,0.6-2.1,1.1-3.1,1.7
		c-0.1-1.2,0.3-1.9,1.4-2.5c2.1-1.1,4.1-2.4,6.2-3.6c0.4-0.2,0.8-0.5,1-1C244,348.7,244.9,347.8,246.1,347.9z"/>
	<path class="st33" d="M272.4,353.7c0.8-0.1,1.5,0.4,2.3,0.1c1.1,0.4,2.2,0.2,3.3,0.3c0.5,0.1,1.1,0.1,1.6,0.3
		c0.4,0.1,0.6,0.5,0.6,1c-0.1,0.4-0.4,0.7-0.8,0.7c-0.2,0-0.3,0-0.5,0c-2-0.3-4.1-0.4-6.1-0.6C271.6,355.4,271.5,354.9,272.4,353.7z
		"/>
	<path class="st34" d="M293.1,353.7c0.3,0,0.7,0,1,0c0.3,0.1,0.7,0.2,1,0.3c0.3,0,0.5,0,0.8,0c1.2,0.1,2.4,0.1,3.6,0.2
		c0.7,0.1,1.3,0.4,1.2,1.2c-0.1,0.7-0.7,0.8-1.3,0.8c-2.1-0.3-4.1-0.5-6.2-0.6c-0.5,0-1-0.2-1-0.8
		C292.2,354.1,292.7,353.9,293.1,353.7z"/>
	<path class="st35" d="M374.4,339.3c0-0.8,0-1.5,0-2.3c0.2-0.3,0.3-0.7,0.4-1c0.1,0,0.3,0,0.4,0c0,0.5,0,1,0,1.4
		C374.6,337.8,375.1,338.9,374.4,339.3z"/>
	<path class="st2" d="M296,354c-0.3,0-0.5,0-0.8,0c0-0.3,0.1-0.6,0.4-0.8c0.1,0.1,0.1,0.1,0.2,0.2C295.9,353.5,295.9,353.7,296,354z
		"/>
	<path class="st36" d="M378.1,43.2c-0.2-0.4-0.6-0.4-1-0.5c0.5-0.2,1-0.4,1.5-0.7c1.8-1.1,2.7-3,2.3-4.8c-0.5-2.2-2-3.4-4.4-3.5
		c-0.4,0-0.8,0-1.2,0c0.4-0.7,1.5-0.2,1.9-0.9c2.9,0.7,4.2,2.1,4.4,4.5C381.9,40.4,381,41.9,378.1,43.2z"/>
	<path class="st37" d="M101.1,20.7c-1.3,0-2.3-1.2-2.2-2.5c0.1-1.3,1.1-2.2,2.4-2.2c1.3,0,2.4,1.2,2.3,2.5
		C103.4,19.7,102.3,20.7,101.1,20.7z"/>
	<path class="st37" d="M95.1,18.3c0,1.3-1.3,2.4-2.5,2.3c-1.2-0.1-2.2-1.2-2.2-2.4c0-1.3,1.2-2.4,2.5-2.3C94,16,95.1,17.2,95.1,18.3
		z"/>
	<path class="st38" d="M86.5,18.4c-0.1,1.2-1.1,2.2-2.3,2.2c-1.3,0-2.4-1.2-2.4-2.5c0.1-1.2,1.2-2.2,2.3-2.2
		C85.5,15.9,86.6,17.1,86.5,18.4z"/>
	<path class="st39" d="M71.6,245.5c2.2-0.3,4.2-1.2,6.1-2.3c0.9-0.6,2-0.6,3-0.1c2.6,1.3,5.4,2.1,8.4,2.8c-2.6,1.5-4.8,0.4-7-0.5
		c-1.6-0.6-3-0.8-4.6-0.3C75.6,245.7,73.6,246,71.6,245.5z"/>
	<path class="st40" d="M84.1,236.6c0,1.6,0.8,2.7,2.1,3.6c1.5,1.1,2.6,0.9,3.7-0.5c0.5-0.6,0.9-1.3,1-2.1c0.6,0.3,0.4,0.9,0.5,1.4
		c-0.1,0.7-0.4,1.4-0.9,1.9c-1.2,1.5-2.8,1.8-4.4,0.7c-1.7-1.2-2.8-2.8-2.5-5C83.7,236.6,83.9,236.6,84.1,236.6z"/>
	<path class="st41" d="M68.7,236.1c-0.1,1.1,0.2,2,0.7,3c1.2,2.2,3.3,2.5,5,0.6c0.4-0.5,0.7-1.1,1-1.6c0.2,0.2,0.3,0.3,0.5,0.5
		c0,0.1,0,0.2,0,0.2c-0.8,2.1-3.2,3.9-4.7,3.5c-1.5-0.4-2.9-2.8-2.9-5c0-0.6,0-1.1,0-1.7C68.4,235.8,68.6,236,68.7,236.1z"/>
	<path class="st42" d="M84,307.1c0-1.3,0.9-2.4,0.7-3.8c0.5,0.5,0.3,1.2,0.4,1.8c0.1,0.5,0.1,1,0.7,1c0.7,0,0.6-0.5,0.7-1
		c0.1-0.3,0.2-0.6,0.3-0.8c0,1,0.4,1.6,1.6,1.6c1.4,0,2.9-0.2,3.8,1.3C89.5,307.1,86.7,307.1,84,307.1z"/>
	<path class="st43" d="M91.3,239c-0.1-0.5,0.1-1.1-0.5-1.4c0.3-2.2-0.9-4.2-1.3-6.5c0.9,0.3,1,1,1.2,1.5c0.4,1.3,0.7,2.6,1,3.9
		C91.8,237.4,92,238.3,91.3,239z"/>
	<path class="st44" d="M68.7,236.1c-0.2-0.2-0.3-0.3-0.5-0.5c0.3-1.5,0.8-3.1,1.7-4.4C69.8,232.9,69.6,234.6,68.7,236.1z"/>
	<path class="st45" d="M76,238.5c-0.2-0.2-0.3-0.3-0.5-0.5c0.7-1.7,0.3-3.5,0.8-5.3C76.3,234.7,76.9,236.7,76,238.5z"/>
	<path class="st44" d="M84.1,236.6c-0.2,0-0.3,0-0.5,0c-0.9-1.4-0.4-2.9-0.3-4.3C83.5,233.7,84.2,235.1,84.1,236.6z"/>
	<path class="st46" d="M80.2,249.6c-0.5-0.3-0.3-1.1-0.9-1.4c-0.1-0.6-0.2-1.2,0.6-1.8C80.3,247.5,80.3,248.5,80.2,249.6z"/>
	<path class="st47" d="M380.6,279.8c-0.2-0.6-0.3-1.3-0.5-1.9c0-1.7,0.2-3.4-0.9-4.8c-0.1-2.1,0.4-4.2-0.5-6.2c0-0.4,0-0.7,0-1.1
		c0-3.2-0.7-6.3-0.9-9.5c-0.1-1.3-0.6-1.6-1.8-1.6c-2,0.1-4,0.1-6,0c-1.3-0.1-1.5,0.6-1.5,1.6c-0.5-1.7-0.4-1.9,1.1-1.9
		c1.8-0.1,3.7,0,5.5,0c0.7,0,1.4,0.1,2.1-0.5c-2.3,0-4.6,0-6.9,0c-0.7,0-1.6,0.4-2.1-0.6c2.6,0,5.2,0.1,7.8,0.1
		c1.1,0,1.3-0.5,1.2-1.4c-0.2-2-0.6-4.1-0.6-6.1c0.1-0.2,0-0.7,0.5-0.5c0.2,0.1,0.2,0.6,0.3,0.9c2.1,7.8,5.2,15.2,9,22.2
		c0.9,1.7,1.5,3.3,1.4,5.2c0,1.4,0,2.8,0,4.1c0,0.2,0,0.4,0,0.6c0,0.2,0,0.3,0,0.5c0,0.2,0,0.4,0,0.5c-0.2,3.6-0.3,7.2-0.5,10.9
		c0.1,0.3,0.3,0.7,0.4,1c-0.1,0.2-0.4,0.3-0.4,0.5c-0.3,3.1-0.5,6.3-0.6,9.5c0,1.1,0.6,1.1,1.4,1.1c4.5,0,9-0.1,13.5-0.1
		c-0.6,0.8-1.5,0.5-2.2,0.5c-3.4,0-6.7,0-10.1,0c-0.7,0-1.4-0.2-2.5,0.4c2.1,0,3.7,0,5.4,0c2.7,0,5.4,0,8.1,0c0.8,0,1.7-0.2,1.7,1.1
		c-0.4-0.6-1-0.7-1.7-0.7c-4.1,0-8.3,0-12.4,0c-1.1,0-1.6,0.4-1.6,1.5c0,2-0.2,4-0.2,6c-0.1,0.3-0.2,0.6-0.3,0.9
		c-0.3,1.4-0.3,1.4-1.9,1c-0.2-2.3-0.4-4.6-0.7-6.9c-0.2-2.4-0.2-2.4-2.5-2.4c-0.7,0-1.4,0.1-2.1,0.2c0.3-0.6,0.9-0.6,1.4-0.6
		c0.8,0,1.5,0,2.8,0c-1.7-0.9-3.3,0.1-4.3-1c0-0.5,0.1-0.9,0.1-1.4c0.1,0,0.2,0,0.4,0c0.2,0.5-0.3,1.3,0.5,1.4c1,0.2,2.1,0.4,3-0.1
		c0.8-0.5,0.1-1.4,0.1-2.2c0-0.6-0.1-1.3-0.2-1.9c-0.4-2.2-0.3-4.6-0.9-6.8c0-0.3,0-0.7,0-1c0-0.2,0-0.3-0.1-0.5
		c0.1-0.1,0.1-0.3,0-0.4c-0.1-0.8,0.6-2-0.8-2.3c-0.3-1,0.7-2,0.3-3C380.4,282.7,380.7,281.2,380.6,279.8z"/>
	<path class="st48" d="M366.7,240.9c-0.4-3.5-0.9-6.9-1.3-10.4c2.9-0.4,5.7-0.1,8.6-0.2c0.9,0,1.4,0.2,1.3,1.2
		c-0.2,2.6,0.4,5.2,0.5,7.9c0.1,1.1-0.3,1.6-1.5,1.6C371.8,240.9,369.3,240.9,366.7,240.9z"/>
	<path class="st49" d="M383.5,226.1c0.3,0,0.6,0,0.9-0.1c0,0.9,0,1.8,0,2.6c0,8.4,1.2,16.6,3,24.8c0.9,4,2,8,3.3,11.9
		c1.7,5,4.1,9.7,7.7,13.6c1.4,1.6,3,3.1,5.2,3.6c-0.2,0.2-0.3,0.3-0.5,0.5c-1.6-0.3-2.9-1.3-4.1-2.4c-4.3-3.8-6.9-8.7-8.8-14
		c-2.8-7.4-4.4-15.1-5.7-22.8c-0.4-2.5-0.4-5.1-0.7-7.6C383.4,233,383.6,229.6,383.5,226.1z"/>
	<path class="st50" d="M392.1,224.6c0.9-0.5,1.3-1,1.1-2.2c-0.4-2.6,0.2-5.2,0.4-7.8c0.1,0,0.3,0,0.4,0c0.8,3.4,0.9,6.9,1.4,10.3
		c0.3,1.8,0.4,3.6,0.6,5.4c-0.2,0.6,0.1,1.4-0.3,2.1c-0.7-2.7-2.2-4.8-3.6-6.9C392.1,225.2,392.1,224.9,392.1,224.6z"/>
	<path class="st51" d="M376.3,245.2c-2.4,0-4.8,0.1-7.1,0c-1.2,0-1.5,0.6-1.6,1.6c-0.1-0.1-0.2-0.3-0.2-0.4c-0.8-4-0.8-4,3.2-4
		c1.9,0,3.8,0.1,5.7,0.1C376.2,243.4,376.3,244.3,376.3,245.2z"/>
	<path class="st51" d="M374.8,229c-3.2,0-6.3-0.1-9.5-0.1c0-1.9,0-1.9,1.6-1.9c2.4,0,4.7,0,7.1,0C375.9,227,376,227.1,374.8,229z"/>
	<path class="st52" d="M387.8,277.8c0-1.4,0-2.8,0-4.1c0.2-0.3,0.3-0.5,0.6-1.1c1.1,1.7,2.1,3.3,3.2,5.2
		C390.3,278,389.1,277.9,387.8,277.8z"/>
	<path class="st53" d="M403.1,283.2c0.2-0.2,0.3-0.3,0.5-0.5c3.4,0.9,6.3-0.2,9.2-1.8c0.8-0.4,1.4-1,2.3-1.1c0,0,0,0,0,0
		c-3.2,3.1-7.1,4.2-11.4,3.7C403.5,283.5,403.3,283.3,403.1,283.2z"/>
	<path class="st54" d="M417.5,277.9c1.1-1.6,2.6-2.7,4-4.3C421,275.4,419.4,277.1,417.5,277.9L417.5,277.9z"/>
	<path class="st6" d="M387.8,278.8c0-0.2,0-0.3,0-0.5c1.3,0,2.5,0,3.8,0C390.3,279,389,278.7,387.8,278.8z"/>
	<path class="st53" d="M417.5,277.9c-0.6,0.9-1.2,1.8-2.4,1.9c0,0,0,0,0,0C415.7,278.9,416.3,278,417.5,277.9
		C417.5,277.9,417.5,277.9,417.5,277.9z"/>
	<path class="st55" d="M392.1,224.6c0,0.3,0,0.6,0,0.9c-0.4-0.1-0.7-0.4-1-0.8C391.4,224.7,391.7,224.6,392.1,224.6z"/>
	<path class="st56" d="M107.8,148.4c-0.3-1.1-0.7-2.1-0.9-3.2c-0.1-0.6,0-1.2,0.8-0.6c0.8,0.7,1.3,0.1,1.8-0.5
		c0.6-0.8,1.1-1.8,1.7-2.6c0.6-0.7,1.3-1.2,2.3-0.6c0.8,0.5,1.1,1.5,0.6,2.5c-0.2,0.5-0.6,1-1,1.3c-1.3,1.2-2.1,2.7-2.6,4.4
		C109.5,149.2,108.4,149.7,107.8,148.4z"/>
	<path class="st57" d="M78.8,187.1c-0.8,0.7-1.3,1.2-1.9,1.8c-1.8,1.7-2.4,3.6-1.5,6c0.1,0.3,0.2,0.6,0.3,0.9c0.4,1-0.3,1.5-1,1.8
		c-0.8,0.3-1.1-0.4-1.4-0.9c-1.6-3.4-0.3-7.4,3.1-9.2C77,187.1,77.6,186.5,78.8,187.1z"/>
	<path class="st1" d="M405.1,330.6c0.6,2.5,0.8,5,1,7.6c0.1,0.7-0.3,1-1,1c-0.4,0-0.8,0-1.2,0c-7.6,0-15.2,0-22.8,0
		c-2.2,0-2.2,0-2.5-2.2c-0.3-2.4-0.6-4.7-0.9-7.1c-0.2-1.6-0.1-1.7,1.6-1.8c1.5,0,3,0.1,4.5,0.1c2.2,0.7,4.5,0.8,6.7,0.9
		c2.2,0.1,4.2,0.5,6.4,0.7C399.8,330.1,402.4,330.5,405.1,330.6z"/>
	<path class="st4" d="M372.9,205.9c0.5,0.4,1,0.7,1.6,1.1c1.2,0.8,1.7,1.9,1.8,3.4c0.2,2.3-0.1,4.4-0.7,6.6
		c-0.8-0.5-1.7-0.5-2.5-0.5c-2.5,0-5.1,0-7.6,0c-1.9,0-2.1-0.2-2.2-2c-0.2-2.2-0.4-4.4-0.8-6.6c-0.3-1.7-0.1-2,1.6-2
		C367.1,205.9,370,205.9,372.9,205.9z"/>
	<path class="st58" d="M362.7,241.3c-1.8,0-3.6-0.1-5.5-0.1c-1,0-1.4-0.4-1.3-1.4c0.4-3.1,0.7-6.3,1.1-9.4c5.8-0.4,4.7-0.8,5.3,4.2
		c0.2,1.7,0.4,3.3,0.7,5C363.2,240.2,363.3,240.9,362.7,241.3z"/>
	<path class="st59" d="M378.7,300.9c0,0.5-0.1,0.9-0.1,1.4c-1-0.1-2.4,0.7-2.9-1c0.1-3,0.6-6,1.1-9c0.9-1.4,2.2-0.9,3.5-0.9
		c-0.4,2.9-0.8,5.7-1.2,8.6C378.8,300.2,378.7,300.5,378.7,300.9z"/>
	<path class="st59" d="M377.2,289.8c0.2-3,0.6-6,1.1-9c0.9-1.6,0.9-1.6,2.3-0.9c0.1,1.4-0.1,2.8,0.4,4.2c0.4,1-0.6,2-0.3,3
		c0,0.5,0,0.9,0,1.4l-0.1-0.1C379.6,290.7,379.3,290.8,377.2,289.8z"/>
	<path class="st60" d="M379.1,299.9c0.4-2.9,0.8-5.7,1.2-8.6c0.4,0,0.9,0,1.3,0c0.7,2.2,0.6,4.5,0.9,6.8c0.1,0.6,0.1,1.3,0.2,1.9
		c0,0.7,0.7,1.7-0.1,2.2c-0.9,0.5-2,0.3-3,0.1c-0.7-0.1-0.3-0.9-0.5-1.4C379.1,300.6,379.1,300.3,379.1,299.9z"/>
	<path class="st59" d="M378.2,306.7c-0.1,2.5-0.5,5-0.9,7.5c-0.7,0.7-1.4,0.8-1.5-0.3c-0.2-2.9-1.1-5.8-0.6-8.8c0-0.5,0-0.9,0.1-1.4
		C378.1,303.8,378.1,303.8,378.2,306.7z"/>
	<path class="st61" d="M376.8,292.3c-0.5,3-0.9,6-1.1,9c-0.3,0.3-0.3,1-0.9,1c-0.6,0-0.5-0.7-0.6-1.1c-0.4-3.2-0.8-6.3-1.2-9.5
		c1-0.6,1.9-0.3,2.9-0.3C376.6,291.3,376.7,291.8,376.8,292.3z"/>
	<path class="st62" d="M357.6,227.1c0.3-2.7,0.7-5.3,0.9-8c0.1-1.4,1.1-1.1,1.9-1.2c0.2,2,0.3,4.1,0.7,6c0.2,1,0.2,2,0.3,3
		C360.2,227,358.9,227,357.6,227.1z"/>
	<path class="st63" d="M363.8,245.7c-2.3-1-4.8-0.3-7.2-0.4c-1.3-0.1-0.7,1.5-1.4,1.9c-0.2-1.6,0.4-3.1,0.5-4.7c1.9,0,3.8-0.1,5.7,0
		c2.1,0,2.1,0,2.3,2.1C363.8,244.9,363.8,245.3,363.8,245.7z"/>
	<path class="st64" d="M378.1,314.7c0.6-1.2,1.7-1.2,2.8-1.3c1.1-0.1,2.2,0.3,3.2-0.4c1.6,0.4,1.6,0.4,1.9-1
		c0.1-0.3,0.2-0.6,0.3-0.9c-0.2,1.3,0.7,2.4,1.1,3.5C384.2,315,381.2,314.9,378.1,314.7z"/>
	<path class="st65" d="M357.6,227.1c1.3,0,2.5-0.1,3.8-0.1c0.1,0.5,0.2,1.1,0.4,1.8c-1.5,0.3-2.9,0.1-4.2,0.2
		C357.4,228.3,357.5,227.7,357.6,227.1z"/>
	<path class="st66" d="M378.6,277.8c0.2-1.6,0.4-3.2,0.6-4.8c1.1,1.4,0.9,3.1,0.9,4.8C379.6,277.9,379.1,277.9,378.6,277.8z"/>
	<path class="st67" d="M359,216.5c-0.1-1.3,0.1-2.6,0.5-3.8c1,1,0.3,2.3,0.6,3.4C360.2,216.6,359.4,216.4,359,216.5z"/>
	<path class="st68" d="M376.9,317.9c-0.1,0.4-0.1,0.8-0.2,1.2c-0.7-0.9-0.4-2-0.6-3C377,316.4,376.6,317.3,376.9,317.9z"/>
	<path class="st69" d="M375.3,303.8c0,0.5,0,0.9-0.1,1.4C374.4,304.3,374.4,304.1,375.3,303.8z"/>
	<path class="st70" d="M381.5,289.4c0.1,0.1,0,0.3,0,0.4c-0.3,0-0.6,0-0.9,0c0-0.5,0-1-0.1-1.4c0,0,0.1,0.1,0.1,0.1
		C380.9,288.8,381.2,289.1,381.5,289.4z"/>
	<path class="st71" d="M375.2,336c-0.1,0-0.3,0-0.4,0c0-0.2,0.1-0.6,0.1-0.6C375.4,335.4,375.2,335.7,375.2,336z"/>
	<path class="st72" d="M380.6,289.8c0.3,0,0.6,0,0.9,0c0,0.2,0,0.3,0.1,0.5C381.2,290.3,380.7,290.5,380.6,289.8z"/>
	<path class="st9" d="M391.6,189.5c-1.9-0.6-3.9-1.2-5.8-1.7c0.5-1.7,0-2.9-1.8-3.4c-0.2-0.1-0.3-0.3-0.5-0.5
		c0.9-0.6,1.8-1.3,1.9-2.5c0.2-1.6-0.3-2-1.9-1.6c-1,0.3-1.9,0.8-2.9,0.8c-0.9-1.1-1.3-2.4-1.3-3.7c-0.1-1.5-0.7-2.2-2-2.6
		c1.4-1.3,2.1-3,2.5-4.8c0.1-0.3,0.2-0.6,0.4-0.9c1.5,0.1,3,0.2,4.5,0.5c2.1,0.4,4,1.3,4.9,3.4c0.4,0.9,0.8,1,1.7,0.7
		c1-0.4,1.8,0,2.2,0.8c0.5,0.9,0.1,1.7-0.6,2.4c-0.4,0.4-0.9,0.6-1.4,0.9c-2.8,1.6-3.2,5.2-0.8,7.4c0.3,0.3,0.6,0.5,0.9,0.7
		C391.6,186.7,391.6,188.1,391.6,189.5z M383.5,170.9c0.6,0.6,0.8,1.6,1.9,2.3c-0.4-1.5-0.8-2.4-2-2.8c-1.2-0.2-2.4-0.3-3.2,1.4
		C381.6,171.8,382.3,170.6,383.5,170.9z M383.4,178C383.4,178.1,383.4,178.1,383.4,178c0.7,0,1.5,0.1,2.1-0.1
		c0.7-0.2,1.2-0.8,1.2-1.6c0-0.5-0.2-0.9-0.6-1.2c-1.1-0.7-3.6-0.6-4.5,0.3c-0.4,0.4-0.9,0.7-0.7,1.4c0.2,0.6,0.6,1.2,1.3,1.3
		C382.6,178.1,383,178,383.4,178z"/>
	<path class="st0" d="M380.1,168.5c-0.1,0.3-0.3,0.6-0.4,0.9c-0.3,1.9-1.1,3.5-2.5,4.8c-3.2,0-6.4,0.1-9.6,0.1
		c-2.2-2.6-3.6-5.6-4.8-8.8c4-0.9,7.9-1.8,11.9-2.7C375.1,166,377.4,167.5,380.1,168.5z"/>
	<path class="st73" d="M374.8,162.8c-4,0.9-7.9,1.8-11.9,2.7c-0.2-0.4-0.4-0.9-0.6-1.3c1.5-1,3.3-1,4.9-1.4c2.5-0.6,5-1.3,7.6-1.6
		C374.8,161.8,374.8,162.3,374.8,162.8z"/>
	<path class="st74" d="M83.6,154.3c2.1-0.1,4.1,1.1,4.7,2.6c0.7,1.9-0.1,4.2-2,5.8c-0.1-1.4,1.2-2.1,1.1-3.3
		c-0.1-1.2,0.4-2.4-0.7-3.4C85.8,155.3,84.7,154.9,83.6,154.3z"/>
	<path class="st75" d="M92,314.3c-0.1,0.3-0.2,0.6-0.2,0.9c0,1.1-0.5,1.5-1.6,1.5c-7.6,0-15.2,0-22.9,0c-1.4,0-1.4-0.1-1.7-2.4
		c0.5-0.4,1-0.3,1.6-0.3c7.7,0,15.4,0,23.1,0C91,313.9,91.5,313.9,92,314.3z"/>
	<path class="st76" d="M92.8,314c0.5,1.3,0.5,1.3,0,2.6c-0.8-0.7-0.4-1.6-0.5-2.3C92.3,314,92.5,313.9,92.8,314z"/>
	<path class="st77" d="M394,214.5c-0.1,0-0.3,0-0.4,0c-0.1-0.4,0-0.8,0.4-1C394,213.9,394,214.2,394,214.5z"/>
	<path class="st78" d="M83.8,174.7c-1.1,0-2.1-0.1-2.7-1.1c-0.4-0.6-0.3-1.2,0.3-1.6c1.3-0.9,3.4-0.8,4.6,0.2c1,0.8,0.9,1.6-0.2,2.2
		C85.3,174.8,84.5,174.7,83.8,174.7z"/>
	<path class="st79" d="M85.1,167.9c-1.1,0-1.6,1-2.2,1.8c0.2-2.1,1.1-2.7,3.2-2.3C85.7,167.5,85.3,167.6,85.1,167.9z"/>
	<path class="st80" d="M85.1,167.9c0.2-0.4,0.6-0.4,1-0.5c0.6,0.2,1.1,0.4,1.1,1.3C86.3,169,85.9,167.9,85.1,167.9z"/>
	<path class="st81" d="M64.4,334.5c0.4,2.2,0.8,4.4,0.5,6.7c-3.1-0.1-3.1-0.1-2.8-3.2c0.1-0.9,0.3-1.7,0.4-2.5
		c0.9-1.1,0.3-2.4,0.4-3.6c0-0.6,0-1.1,0.1-1.7c0.6-0.1,1.1-0.1,1,0.8C64.1,332.1,63.5,333.4,64.4,334.5z"/>
	<path class="st82" d="M62.9,331.9c-0.1,1.2,0.5,2.5-0.4,3.6C62.5,334.2,62.4,333,62.9,331.9z"/>
	<path class="st83" d="M63,327.3c0.3-0.2,0.4-0.8,0.8-0.6c0.2,0.1,0.1,0.7,0.1,1c-0.3,0.2-0.5,0.3-0.8,0.5
		C63.1,328,63,327.6,63,327.3z"/>
	<path class="st84" d="M63.1,328.3c0.3-0.2,0.5-0.3,0.8-0.5c0.1,0.7-0.1,1-0.9,0.8C63,328.5,63,328.4,63.1,328.3z"/>
	<path class="st2" d="M281.4,247.3c0.4,1.6,0.3,3.2,0.7,4.8c0.4,1.5-0.5,2.7-1,4c-1,0.3-1.7,1.1-2.3,1.9c-3.9,2-6.7,4.8-7.4,9.3
		c-0.1,0.8-0.5,1.6-1.6,0.7c-0.4-0.4-0.9-0.4-1.3,0.1c-0.4,0.5-0.1,0.9,0.2,1.3c0.3,0.3,0.6,0.6,0.9,0.8c2.5,1.8,4.8,3.7,6.6,6.1
		c0.2,0.8,0.5,1.7,1,2.4c0,0.5,0,1,0.1,1.4c0.6,4.4-0.7,7.7-4.6,9.8c-2,1.1-3,2.7-3.3,4.9c-0.4,2.7-1.3,5.1-3.8,6.5
		c-3.6,1.5-7.2,0.8-10.8,0.2c-2.3-0.4-4.5-1.1-6.5-2.2c-3.6-2-5-5.1-3.9-9.1c0.7-2.6,1.9-4.9,3.8-6.8c1.5-1.5,2.9-2.9,4.6-4.2
		c2.8-2.2,4.4-5,4.4-8.6c0-2.6,0-5.1-0.1-7.7c-0.2-5.2,3-7.9,7-9.1c3.8-1.1,3.8-1.1,6-4c0.7-0.9,1.5-1.7,2.4-2.3
		c3.2-2.1,5.4-1.8,8.5,1.1C281.5,248.3,281.2,247.8,281.4,247.3z"/>
	<path class="st6" d="M277.5,343.1c-0.6-0.8-1.3-0.2-1.9-0.1c-6.8,1.9-13.4,4.4-20.1,6.5c-1.3,0.4-2.6,0.8-3.9,1.2
		c-1.8-1.7-3.6-3.7-5.6-5.2c-2.1-1.6-3.9-3.5-5.9-5.2c-3.9-3.3-7.6-6.8-11.3-10.3c-0.9-0.8-1.8-1.6-3-1.9c0.3-1.2,1.4-1,2.1-1.3
		c6.9-2.3,13.8-4.6,20.7-6.9c0.7-0.2,1.6-0.3,2.2-0.9c2.3-0.3,4.4-1.3,6.6-2c1-0.4,1.8-0.2,2.6,0.5c1.4,1.4,2.9,2.7,4.4,4
		c0.2,1.1-0.6,1.9-1,2.8c-1.2,2.6-2.2,5.3-2.1,8.2c0.1,2.3,1,4.3,2.8,5.8c0.6,0.5,1.2,1,1.9,1c4.1,0.5,8,2.1,12.2,2.1
		C277.9,342.2,278,342.8,277.5,343.1z"/>
	<path class="st4" d="M265.8,301.5c2.6-1.4,3.5-3.8,3.8-6.5c0.3-2.2,1.2-3.7,3.3-4.9c3.8-2.1,5.2-5.3,4.6-9.8
		c-0.1-0.5-0.1-1-0.1-1.4c1.6-0.1,2.8-0.8,3.8-2c1.5,0.3,2.3-0.8,3.3-1.6c9.7-7.3,14.2-17.6,16.5-29.1c0.7-0.8,0.2-2.1,1-2.9
		c1,0,1.9,0.1,2.8,0.5c0,0.5,0,0.9,0.1,1.4c-0.7,2.3-0.5,4.7-0.8,7.1c-1.5,9.1-5.3,17.2-11.4,24.1c-2.3,2.7-4.8,5.1-7.6,7.3
		c-1.4,1.1-1.4,1.2-0.6,3c0.4,0.9,1.1,1.8,1.8,2.5c0.7,0.7,1.3,1.4,2,2.1c1.7,2,1.7,3.5-0.1,5.5c-0.9,0.9-1.8,1.8-2.8,2.6
		c-0.8,0.7-1.1,1.5-1.1,2.5c0,1.9,0.3,3.6,0.8,5.4c0.5,2,0.9,4,1.5,6c0.2,0.7,0.1,1.3-0.7,1.5c-0.2,0-0.4,0-0.6,0
		c-0.3,0.1-0.7,0.2-1,0.4c-1.4-0.1-2.8,0.5-4.2,0.6c-0.2,0-0.4,0-0.6,0c-0.2,0-0.4,0.1-0.5,0.3c-3.8-0.1-7.5,0.8-11.3,0.5
		c-0.8-0.3-0.6-1-0.5-1.6C267.9,310.4,267.1,305.9,265.8,301.5z"/>
	<path class="st85" d="M174.2,322c-0.6,0.9-1.3,1.5-2.3,1.9c-1.6,0.7-3.3,1.6-4.9,2.4c-0.3-0.5-0.9-0.7-1.4-0.9
		c-2.2-0.9-4.4-1.8-6.6-2.6c-3.6-1.3-7-3.1-10.6-4.1c-1-0.1-1.9,0.3-2.8,0.7c-3.8,1.5-7.7,3.1-11.5,4.7c-1.7,0.7-3.5,1-5,2.2
		c-1.5-0.7-2.9-1.5-4.5-2.2c-1.1-0.5-2-1.2-2.8-2.1c-0.6-1-1.2-2.1-1.8-3.1c-0.6-0.9-0.3-1.4,0.6-1.8c4.6-1.8,9.2-3.6,13.8-5.4
		c2.6-1,5.2-2,7.8-3c1.2-0.5,1.7-0.2,2.2,1c1,2.6,2.1,5.1,3.3,8c1-1.2,1.3-2.3,1.7-3.3c0.7-1.6,1.4-3.2,2-4.9c0.4-1.1,1-1.2,2.1-0.8
		c3,1.2,5.9,2.3,8.9,3.5c4.2,1.6,8.5,3.3,12.7,4.9c0.4,0.1,0.8,0.2,1.1,0.8C176,319.4,175,320.6,174.2,322z"/>
	<path class="st86" d="M147.1,277.1c1.7-0.7,3.1-1.5,3.3-3.9c0.9,2,1.6,3.4,3.6,3.8c-1.7,0.7-3,1.7-3.3,3.6
		C150,278.8,149,277.6,147.1,277.1z"/>
	<path class="st87" d="M156.6,292.7c1-0.5,1.3-1.5,2.1-2.3c0.4,1,1.1,1.7,2.1,2.1c-0.8,0.8-1.8,1.1-2.1,2.3
		C158,294,157.7,293.1,156.6,292.7z"/>
	<path class="st88" d="M135.7,282.6c0.4-0.7,1.2-0.8,1.3-1.6c0.8,0.3,1,1.1,1.6,1.5c-0.3,0.6-0.8,1-1.3,1.4
		C136.7,283.5,136.2,283,135.7,282.6z"/>
	<path class="st88" d="M165.8,281.3c0.3-0.3,0.7-0.8,1.2-1.3c0.7,0.2,0.7,1.2,1.4,1.2c-0.3,0.7-0.8,1.1-1.3,1.6
		C166.6,282.4,166.2,281.8,165.8,281.3z"/>
	<path class="st89" d="M154.5,304.6c-1.1-1.5-1.1-1.5,0.1-2.9c0.5,0.3,0.9,0.8,1.3,1.3C155.4,303.5,155,304,154.5,304.6z"/>
	<path class="st90" d="M164,266.9c0.7-0.5,1-2,2.1-0.6c0.3,0.4,0.5,0.6,0.1,1.1C165.1,268.6,164.7,267.3,164,266.9z"/>
	<path class="st90" d="M145.8,295.6c-0.7,0.2-0.7,1.9-1.9,0.8c-0.6-0.5-0.8-0.8-0.1-1.5C145,293.8,145,295.6,145.8,295.6z"/>
	<path class="st91" d="M139,267.9c-0.4-0.4-0.9-0.9-1.2-1.2c0.4-0.4,0.9-0.9,1.3-1.4c0.4,0.4,0.8,0.9,1.3,1.3
		C139.9,267.1,139.4,267.5,139,267.9z"/>
	<path class="st5" d="M288.5,243.8c0-0.7-0.2-1.3-0.9-1.9c-4.3-3.8-8.5-7.7-12.8-11.5c-3.7-3.3-7.4-6.5-11.1-9.7
		c-0.3-0.3-0.5-0.6-0.8-0.9c6.6-2.2,13.1-4.5,19.7-6.7c3.7-1.2,7.4-2.5,11.1-3.7c1-0.4,1.8-0.3,2.8,0.4c2,1.5,3.7,3.3,5.6,4.9
		c3.9,3.3,7.6,6.8,11.4,10.2c0.8,0.7,1.8,1.4,2.7,2c0.6,1,1.6,1.7,2.4,2.5c0.9,1,2.3,1.4,2.8,2.7c-4.5,1.2-8.9,2.8-13.3,4.4
		c-0.8-0.5-1.5-1.2-2.5-1.4c-0.8-0.2-1.7-0.9-2.5-0.2c-0.9,0.8-0.1,1.8,0.2,2.6c-0.4,0.8-1.2,0.9-2,1.2c-3.5,1.2-7,2.4-10.6,3.5
		C289.9,242.6,289.1,243,288.5,243.8z"/>
	<path class="st0" d="M321.4,232.3c-0.5-1.3-1.9-1.8-2.8-2.7c-0.8-0.9-1.8-1.5-2.4-2.5c12.2,0,24.5,0,36.7,0c0.4,0,0.8,0.1,1.2,0.1
		c-0.7,5.7-1.4,11.3-2.1,17c-0.2,1.4,0,2.9-0.6,4.2c-0.2-3-0.2-3-3.3-3c-14.5,0-28.9,0-43.4,0c0-0.5,0-0.9-0.1-1.4
		c0.1-1.4,0.7-2.5,1.5-3.6c0.6-0.8,1.5-1.3,2-2.3c4-1.3,7.9-2.5,11.9-3.8C321,233.9,321.6,233.3,321.4,232.3z"/>
	<path class="st6" d="M336.5,189.5c-0.1,2.5-0.4,4.9,0.3,7.4c0.2,0.7,0.1,1.4,0.1,2.1c0,3.1-0.9,4-4,4c-5.7,0-11.3,0-17,0
		c-1.5,0-2.4,0.4-3,1.8c-0.4,1-1,2-1.9,3c0-1,0-2,0-3.1c0-0.8,0-1.6-1.1-1.8c-1.4-0.2-1.7-1.4-1.7-2.5c-0.1-3.4-0.1-6.9,0-10.3
		c0-1.4,0.7-2.3,2.2-2.7c0.8-0.2,1.6-0.2,2.4-0.2c2.2,0,4.3,0,6.5-0.1c0.8,0.5,1.7,0.4,2.6,0.4c3.9,0,7.8,0,11.7,0
		C335,187.5,336.3,187.8,336.5,189.5z"/>
	<path class="st2" d="M336.5,189.5c-0.3-1.8-1.5-2-3-2c-3.9,0-7.8,0-11.7,0c-0.9,0-1.8,0.1-2.6-0.4c0-1.3-0.1-2.6,0-3.8
		c0.2-2,1.1-2.9,3-2.9c7.6,0,15.2,0,22.8,0c2,0,2.7,0.7,2.8,2.8c0.1,3.4,0,6.7,0,10.1c0,1.2-0.4,2.2-1.7,2.6c-1,0.3-1.2,1-1.1,1.8
		c0,1,0,1.9,0,3.2c-1.1-1.1-1.5-2.3-2-3.4c-0.5-1.2-1.3-1.6-2.6-1.6c-3.6,0-3.6-0.1-3.6-3.8C336.9,191.2,337.1,190.3,336.5,189.5z"
		/>
	<path class="st92" d="M376.8,193c1.8,0.9,3.5,1.7,5.7,2.2c-0.8,1.1-1.7,1.1-2.6,1.1c-1.7,0-3.4,0.4-5.1,0.9
		C375.3,195.8,376.6,194.6,376.8,193z"/>
	<path class="st93" d="M128.5,107.3c0.5-1,2-1.5,2-2.6c0-0.9-0.8-1.9-1-2.9c-0.3-1.4-1-2.1-2.4-1.9c-0.6,0.1-1.4,0.3-1.6-0.6
		c-0.1-0.8-0.4-1.8,0.2-2.6c0.4-0.6,1.2-0.4,1.8-0.3c1.1,0.1,1.8-0.3,2.1-1.4c0.3-1.1,1.2-2.2,1.3-3.3c0-1.1-1.5-1.6-2-2.7
		c0.3-0.4,0.6-0.7,1-1.1c1.2-1.2,1.4-1.7,2.8,0c0.8,1,1.7,1.1,2.7,0.4c0.3-0.2,0.7-0.4,1.1-0.5c1.6-0.3,2.2-1,2.2-2.8
		c-0.1-1.5,0.2-1.5,2-1.5c1.2,0,1.9,0.4,1.6,1.6c-0.3,1.6,0.3,2.4,1.9,2.7c0.3,0,0.6,0.2,0.9,0.4c1.3,1,2.3,0.9,3.4-0.4
		c1-1.2,1.1-1,2.4,0.3c0.8,0.8,1.4,1.5,0.1,2.3c-1.4,0.9-1.6,2-0.6,3.4c0.2,0.3,0.4,0.7,0.4,1.1c0.2,1.4,1,2,2.4,1.9
		c1.5-0.1,1.5,0.2,1.6,1.9c0,1.3-0.4,1.8-1.7,1.6c-1.4-0.2-2.3,0.3-2.5,1.8c0,0.4-0.2,0.8-0.5,1.1c-1,1.2-0.8,2.2,0.3,3.3
		c1.2,1.1,1,1.3-0.2,2.4c-1.2,1.1-1.4,1.2-2.5,0c-1-1.1-1.9-1.3-3.1-0.5c-0.4,0.3-0.9,0.4-1.3,0.5c-1.4,0.2-1.9,0.9-1.8,2.3
		c0.1,0.6,0.3,1.4-0.5,1.7c-0.9,0.3-1.9,0.3-2.8-0.2c-0.7-0.4-0.5-1.2-0.4-1.8c0.1-1.3-0.3-2-1.6-2.2c-0.3,0-0.6-0.2-0.9-0.4
		c-1.4-1.1-2.7-1.1-3.8,0.5c-0.5,0.8-1.1,0.7-1.7,0C129.5,108.5,128.7,108.1,128.5,107.3z M143.4,98.4c0-1.8-1.6-3.4-3.4-3.3
		c-1.7,0-3.2,1.4-3.2,3.2c-0.1,1.8,1.5,3.4,3.2,3.5C141.8,101.8,143.4,100.2,143.4,98.4z"/>
	<path class="st94" d="M123.4,97.6c-0.1,0.2-0.1,0.3-0.2,0.4c-0.3,0.7-1.3,1.3-1.1,2c0.3,1,1.1,1.9,1.7,2.9c0.4,0.7,1.2,0.4,1.8,0.3
		c1.3-0.2,1.4,0.7,1.6,1.6c0.1,0.9-0.3,1.4-1.2,1.4c-1.2,0-1.8,0.6-1.7,1.8c0,0.3-0.1,0.6-0.3,0.9c-0.5,1.1-0.3,2,0.8,2.5
		c1.1,0.5,0.7,1.2,0.1,1.9c-0.5,0.7-0.9,1.3-1.9,0.6c-0.5-0.4-1-1.1-1.6-0.7c-1.1,0.5-2.1,1.2-3,1.9c-0.4,0.3-0.1,0.8,0,1.1
		c0.3,1,0,1.6-1.1,1.9c-1.1,0.2-1.8,0-1.8-1.2c0-1.9-1.6-1.4-2.5-1.9c-1.2-0.6-2.1-0.3-2.8,0.9c-0.5,0.9-1.1,0.7-1.7,0.1
		c-0.6-0.5-1.3-0.9-0.6-1.9c0.3-0.5,1.1-0.9,0.8-1.6c-0.5-1.1-1.2-2.1-1.9-3c-0.4-0.5-1.1,0-1.6,0c-0.7,0.1-1.3,0-1.3-0.9
		c0-0.8-0.6-1.8,0.8-2.1c0.6-0.1,1.4,0,1.7-0.7c0.4-1,0.6-2.1,0.8-3.2c0.1-0.8-0.7-1-1.2-1.3c-1.1-0.7-0.3-1.3,0.1-2
		c0.4-0.7,0.9-1.2,1.7-0.4c1.1,1.2,2,0.6,3.1-0.1c1-0.7,2.1-1.1,1.6-2.7c-0.3-0.9,0.3-1.3,1.2-1.3c0.8-0.1,1.7-0.2,1.7,1
		c0,1,0.3,1.8,1.5,1.8c1.2-0.1,2.6,1.5,3.6-0.4c0.7-1.2,1.5-0.9,2.3-0.2C122.8,97,123.1,97.2,123.4,97.6z M112.8,106.2
		c0,1.5,1.2,2.8,2.6,2.8c1.3,0,2.6-1.3,2.6-2.6c0.1-1.4-1.2-2.7-2.7-2.7C113.8,103.7,112.8,104.7,112.8,106.2z"/>
	<path class="st95" d="M358.6,151.7c-1,0.4-1.9,0.7-2.9-0.1c0-1.9-1.1-3.3-2.2-4.6c-0.5-0.6-1.1-1.1-1.4-1.9c-0.4-1,0-1.8,0.7-2.3
		c0.7-0.5,1.6-0.3,2.1,0.3c0.5,0.5,0.9,1.1,1.3,1.7c1.3,2,1.3,2,3.6,1.8C359.9,148.5,358.6,149.9,358.6,151.7z"/>
	<path class="st96" d="M367.6,174.3c3.2,0,6.4-0.1,9.6-0.1c1.3,0.4,1.9,1.1,2,2.6c0.1,1.3,0.4,2.6,1.3,3.7c0,0.6,0.3,1,0.5,1.4
		c0,1.4-0.1,2.8-0.1,4.3c-5.6-2.3-9.8-6.3-13.2-11.2C367.7,174.8,367.7,174.5,367.6,174.3z"/>
	<path class="st97" d="M389.4,190.9c3,0.2,5.6,2.4,6,5.4c0.2,1.5,0.3,3-0.3,4.5c-0.3,0.7-0.6,1.4-1.5,1.2c-1-0.2-1.2-1-1.1-1.8
		c0-0.3,0.1-0.6,0.2-0.9c0.8-3.1,0-5.5-2.7-7.3C389.7,191.7,389.2,191.5,389.4,190.9z"/>
	<path class="st58" d="M381,186.2c0-1.4,0.1-2.8,0.1-4.3c0.8,0.6,1.6,1.3,2.3,1.9c0.2,0.2,0.3,0.4,0.5,0.5c1.8,0.5,2.3,1.7,1.8,3.4
		C384.1,187.7,382.5,187,381,186.2z"/>
	<path class="st98" d="M276.4,276.5c-1.8-2.4-4.2-4.4-6.6-6.1c-0.3-0.2-0.6-0.5-0.9-0.8c-0.3-0.4-0.6-0.8-0.2-1.3
		c0.4-0.5,0.8-0.4,1.3-0.1c1.1,0.9,1.5,0.1,1.6-0.7c0.7-4.5,3.4-7.4,7.4-9.3c0.9,0.4,1,1.6,1.8,2c0.3,1.9,0.1,4,2.1,5.3
		c0.5,0.3,0.1,0.9-0.4,1.1c-1,0.3-1,1-1.1,1.9c-0.2,1.5-0.6,3-1.4,4.2c-1-0.3-2.1-0.7-3.1-0.9c-0.6-0.1-1.1,0-1.4,0.5
		c-0.3,0.5,0,0.9,0.2,1.3c0.4,0.9,1.4,1.2,2,2C277.3,276,276.8,276.2,276.4,276.5z M277,263c1.1-0.3,2,0.5,3.4,1.1
		c-0.9-1.9-2.1-1.7-3.3-1.5c-1,0.4-1.5,1.1-1.6,2.6C276.1,264.2,276.5,263.6,277,263z M277.1,270.2c0.6,0.1,1.2-0.1,1.7-0.4
		c1.2-0.7,1.3-1.9,0.1-2.5c-1.3-0.7-2.8-1-4.3-0.3c-0.7,0.3-1,0.7-1,1.5c0,0.6,0.3,1.1,0.9,1.3C275.3,269.9,276.1,270.3,277.1,270.2
		z"/>
	<path class="st99" d="M301,246.3c-0.1-0.6-0.4-1-1.1-1c-4.4,0-8.7,0-13.1,0c-1.2,0-1.2,0.8-1.3,1.6c-0.6-1.3-0.6-2.6-0.9-3.9
		c0.1-0.4,0.1-0.8,0.5-1c1.2,0.7,1.9,2.1,3.3,2.5c0.7,0.2,1.4-0.2,2-0.4c3.5-1.1,6.9-2.3,10.4-3.4c0.1,1,1,1.8,1,2.9
		C301.1,244.2,301.7,245.4,301,246.3z"/>
	<path class="st100" d="M277.5,275.5c-0.6-0.7-1.6-1-2-2c-0.2-0.4-0.5-0.8-0.2-1.3c0.3-0.6,0.9-0.7,1.4-0.5c1.1,0.3,2.1,0.6,3.1,0.9
		C279.5,273.9,278.7,274.9,277.5,275.5z"/>
	<path class="st101" d="M280.7,260.1c-0.9-0.4-0.9-1.6-1.8-2c0.6-0.8,1.3-1.6,2.3-1.9C281.4,257.6,280.8,258.8,280.7,260.1z"/>
	<path class="st102" d="M285.1,241.8c-0.4,0.2-0.5,0.6-0.5,1c-0.6-0.6-0.5-1.3-0.4-1.9C284.6,241.1,285,241.4,285.1,241.8z"/>
	<path class="st103" d="M300.9,240.5c-3.5,1.1-6.9,2.3-10.4,3.4c-0.7,0.2-1.3,0.6-2,0.4c0-0.2,0-0.4,0.1-0.5
		c0.6-0.8,1.4-1.2,2.3-1.5c3.5-1.1,7.1-2.3,10.6-3.5c0.7-0.2,1.6-0.3,2-1.2c0.5,1.6,0.5,1.9-0.7,2.3
		C302.1,240.1,301.5,240.2,300.9,240.5z"/>
	<path class="st1" d="M343.6,339.2c0.4-3.5,0.8-6.8,1.2-10c0.1-0.8,0.5-1.1,1.3-1.1c0.6,0,1.1,0,1.7,0c7.3,0,14.5,0,21.8,0
		c0.8,0,1.6,0,2.5,0c0.1,2.7-0.5,5.3-0.8,7.8c-0.4,3.2-0.5,3.2-3.9,3.2c-7,0-14,0-21,0C345.5,339.2,344.7,339.2,343.6,339.2z"/>
	<path class="st104" d="M283.2,331.1c1.3,2.3,1.3,2.3,3.4,1.2c6.2-3.1,12.4-6.2,18.6-9.4c0.7-0.4,1.4-0.8,2.1-1.2
		c1.1-0.6,2.3-1.2,3.6-1.2c1.7,0,2.3,0.7,1.8,2.4c-0.4,1.7-1.5,3-2.3,4.5c-2.8,5.2-5.8,10.2-9,15.2c-0.2-0.2-0.4-0.4-0.6-0.6
		c1.4-3.4,3.5-6.4,5.2-9.6c1.5-2.7,3.1-5.4,4.6-8.1c0.1-0.2,0.2-0.4,0.3-0.7c0.1-0.5,0.4-1-0.1-1.6c-0.5-0.5-1-0.3-1.5-0.1
		c-2,0.7-3.7,1.8-5.6,2.7c-5.8,3-11.6,6-17.5,8.9c-1.9,1-2.7,0.6-3.7-1.5C282.7,331.7,282.8,331.3,283.2,331.1z"/>
	<path class="st105" d="M283.2,331.1c-0.4,0.2-0.5,0.6-0.5,1c-1.1-2.3-0.9-4.9-1.4-7.3c-0.5-2.4-0.6-4.8-1.5-7.1
		c0-0.4-0.1-0.8-0.4-1c0-0.1,0-0.3-0.1-0.4c0-0.1,0-0.2,0-0.3c0.2,0,0.4,0,0.6,0c0.3,1,0.6,2,1,2.9c0.5,1.1,0.2,2.4,1.3,3.2l0,0.1
		c-0.4,2.6,0.5,5.1,0.7,7.7C283,330.2,283.1,330.7,283.2,331.1z"/>
	<path class="st106" d="M300.9,342.1c0.2,0.2,0.4,0.4,0.6,0.6c-1.5,2.5-2.9,5-4.4,7.5c-0.6,0.9-1.1,1.9-1.5,2.9
		c-0.3,0.2-0.4,0.5-0.4,0.8c-0.3-0.1-0.7-0.2-1-0.3c1.1-2.8,2.9-5.2,4.4-7.8C299.2,344.6,299.6,343,300.9,342.1z"/>
	<path class="st107" d="M268.4,327.3c0,3.7-0.4,7.5,0.7,11.3c-1.9-1.7-2.3-6-1.2-11.8C268,327,268.2,327.2,268.4,327.3z"/>
	<path class="st108" d="M268.4,327.3c-0.2-0.2-0.3-0.3-0.5-0.5c0.8-3,2.2-5.9,3.7-7.6c0.5,0.5-0.1,0.8-0.3,1.1
		C270,322.6,269.2,325,268.4,327.3z"/>
	<path class="st109" d="M279.4,316.7c0.4,0.2,0.4,0.6,0.4,1C279.4,317.5,279.4,317.1,279.4,316.7z"/>
	<path class="st109" d="M279.3,315.9c0,0.1,0,0.2,0,0.3c-0.2,0-0.3,0-0.5,0C278.9,316,279.1,315.9,279.3,315.9z"/>
	<path class="st110" d="M129.2,326.3c1.4-1.2,3.3-1.5,5-2.2c3.8-1.6,7.6-3.2,11.5-4.7c0.9-0.4,1.8-0.8,2.8-0.7c0,5.6,0,11.1,0,16.7
		c0,0.8-0.3,1.8,0.5,2.5c0,0.2,0,0.3,0,0.5c-0.2,0.2-0.3,0.3-0.5,0.5c0,0.1,0,0.3,0,0.4c-0.1,0-0.3,0-0.4,0c0,0,0,0,0,0
		c0-0.4-0.1-0.7-0.5-1c-0.5-2.6-2.3-3.9-4.6-5C138.2,331.1,133.7,328.7,129.2,326.3z"/>
	<path class="st111" d="M168.3,347.5c0.2,2.2,0.2,2.2-2.4,3.4C165.6,348.8,165.6,348.8,168.3,347.5z"/>
	<path class="st112" d="M151.1,360c1.3-1.4,3-2.2,4.7-3.1C154.6,358.6,152.6,359,151.1,360z"/>
	<path class="st113" d="M155.1,354.7c0.2,0.1,0.3,0.3,0.5,0.4c0,0.2,0,0.3,0,0.5c0,0,0,0,0,0c-1,0.1-1.9,0.5-2.4,1.5l0,0
		c-0.2,0-0.3-0.1-0.5-0.1c-0.2-0.1-0.3-0.3-0.5-0.4c0.4-0.6,1.3-0.6,1.5-1.4l0,0C154.2,355.2,154.6,354.8,155.1,354.7z"/>
	<path class="st114" d="M155.1,354.7c-0.5,0.1-0.9,0.5-1.5,0.4c0.4-0.9,1.3-1,2.1-1.5C155.8,354.3,155.4,354.5,155.1,354.7z"/>
	<path class="st115" d="M152.7,356.9c0.2,0,0.3,0.1,0.5,0.1c-0.4,0.9-1.2,1.1-2.4,1.6C151.3,357.5,152.2,357.4,152.7,356.9z"/>
	<path class="st115" d="M153.7,355.1c-0.2,0.8-1.1,0.8-1.5,1.4c-0.3,0-0.6,0-0.9,0l0,0C151.8,355.6,152.7,355.2,153.7,355.1z"/>
	<path class="st115" d="M153.2,357c0.5-1,1.4-1.3,2.4-1.5C155.1,356.5,154.2,356.9,153.2,357z"/>
	<path class="st23" d="M148.9,339.8c0.2-0.1,0.3-0.3,0.5-0.4C149.2,339.5,149,339.6,148.9,339.8z"/>
	<path class="st116" d="M155.6,355.6c0-0.2,0-0.3,0-0.5C156,355.3,156,355.5,155.6,355.6z"/>
	<path class="st117" d="M151.3,356.6c-0.1,0.1-0.2,0.1-0.3,0.2C151.1,356.7,151.2,356.6,151.3,356.6
		C151.2,356.5,151.3,356.6,151.3,356.6z"/>
	<path class="st105" d="M284.1,315.3c0.3-0.1,0.7-0.2,1-0.4c-0.2,1.8-0.3,3.6-1.2,5.2c-0.4,0.8-0.8,1.5-1.6,1.9c0,0,0-0.1,0-0.1
		c0.1-0.8,0.6-1.4,0.9-2.1C283.7,318.4,284.2,316.9,284.1,315.3z"/>
	<path class="st1" d="M84.6,330.2c1.9-0.2,3.8-0.1,5.7,0c-0.3,3.3-0.6,6.6-1,10c-0.3,0.7-0.9,1-1.7,1c-5.8,0-11.6,0-17.5,0
		c-1.1,0-1.6-0.4-1.7-1.5c-0.2-2.4-0.7-4.7-0.7-7.1c1.6-0.2,3.3-0.3,4.9-0.6c3.4-0.6,6.8-1.1,10.3-1.3
		C83.6,330.6,84.2,330.7,84.6,330.2z"/>
	<path class="st59" d="M89.3,340.1c0.3-3.3,0.6-6.6,1-10c2.8,0,2.8,0,3,2.9c0,1.9-0.3,3.8-0.6,5.7c-0.3,0.3-0.4,0.6-0.4,1
		c0,0.6-0.1,1.3-0.9,1.3C90.4,341.2,89.5,341.4,89.3,340.1z"/>
	<path class="st30" d="M90.7,327.2c0.1-3,0.5-6,1-8.9c1.5-0.6,1.9-0.4,2,1.2c0.1,2.6,1,5.3,0,7.9c-0.1,0.3,0,0.6,0,0.9
		c0,0.1,0,0.3,0,0.4c-0.5,0-0.9,0-1.4,0C91.2,328.9,90.8,328.2,90.7,327.2z"/>
	<path class="st118" d="M92.7,338.8c0.3-1.9,0.6-3.8,0.6-5.7c0.6-0.9,0.2-2,0.7-2.9c0.9-0.1,0.9,0.5,0.9,0.9c0.4,3,0.7,6,1,9
		c0.1,0.6-0.1,0.9-0.7,1C93.2,341.5,92.8,341.1,92.7,338.8z"/>
	<path class="st82" d="M64.4,334.5c-0.8-1.1-0.3-2.3-0.4-3.5C64.5,332.1,64.4,333.3,64.4,334.5z"/>
	<path class="st119" d="M93.7,328.7c0-0.1,0-0.3,0-0.4c0.2-0.5,0.4-0.9,0.6-1.4C94.6,328.3,94.6,328.3,93.7,328.7z"/>
	<path class="st120" d="M246.1,347.9c-1.2-0.1-2.1,0.8-3.2,1c-1.7,0-3,1.4-4.8,1.1c0.5-0.4,0.5-1,0.4-1.6c2-0.4,4-0.9,5.8-2
		C245.1,346.9,245.7,347.3,246.1,347.9z"/>
	<path class="st23" d="M147.4,338.3c0.4,0.2,0.5,0.6,0.5,1C147.5,339.1,147.4,338.7,147.4,338.3z"/>
	<path class="st24" d="M148.8,337.8c-0.8-0.7-0.5-1.6-0.5-2.5c0-5.6,0-11.1,0-16.7c3.7,1,7,2.9,10.6,4.1c2.2,0.8,4.4,1.7,6.6,2.6
		c0.5,0.2,1.1,0.4,1.4,0.9c-3.5,1.8-6.9,3.5-10.4,5.3c-1.9,1-3.7,2.1-5.7,3C149.5,335.2,149.6,336.8,148.8,337.8z"/>
	<path class="st23" d="M148.4,338.8c0.2-0.2,0.3-0.3,0.5-0.5C148.7,338.5,148.5,338.7,148.4,338.8z"/>
	<path class="st121" d="M375.3,33.6c0.4,0,0.8,0,1.2,0c2.4,0.1,3.9,1.3,4.4,3.5c0.4,1.8-0.5,3.7-2.3,4.8c-0.5,0.3-1,0.5-1.5,0.7
		c-1.2,0-2.4-0.3-3.4-1.1c-2.3-1.7-2.5-5-0.3-6.9C374,34.3,374.7,34,375.3,33.6z"/>
	<path class="st72" d="M381.5,289.4c-0.3-0.3-0.6-0.6-0.8-0.9c0-0.5,0-0.9,0-1.4C382.1,287.4,381.4,288.6,381.5,289.4z"/>
	<path class="st6" d="M379.1,299.9c0,0.3,0,0.6,0,1c-0.1,0-0.2,0-0.4,0C378.7,300.5,378.8,300.2,379.1,299.9z"/>
	<path class="st122" d="M383.4,178c-0.4,0-0.8,0-1.2,0c-0.7-0.1-1.1-0.6-1.3-1.3c-0.2-0.7,0.3-1,0.7-1.4c0.9-0.8,3.4-0.9,4.5-0.3
		c0.5,0.3,0.7,0.7,0.6,1.2c-0.1,0.8-0.5,1.4-1.2,1.6C384.9,178.1,384.1,178.1,383.4,178C383.4,178.1,383.4,178.1,383.4,178z"/>
	<path class="st123" d="M383.5,170.9c-1.1-0.3-1.8,0.9-3.2,0.9c0.8-1.6,2-1.6,3.2-1.4C383.5,170.6,383.5,170.8,383.5,170.9z"/>
	<path class="st124" d="M383.5,170.9c0-0.2,0-0.3,0-0.5c1.2,0.4,1.6,1.3,2,2.8C384.3,172.5,384.1,171.5,383.5,170.9z"/>
	<path class="st125" d="M300.9,240.5c0.5-0.4,1.1-0.5,1.7-0.6c1.2-0.4,1.3-0.7,0.7-2.3c-0.3-0.9-1.1-1.8-0.2-2.6
		c0.7-0.7,1.7,0,2.5,0.2c0.9,0.2,1.7,0.9,2.5,1.4c0,0.5,0,0.9,0.1,1.4c-0.4,0.9-1.4,1.5-2,2.3c-0.8,1.1-1.4,2.2-1.5,3.6
		c-0.9-0.4-1.8-0.5-2.8-0.5C301.9,242.3,301.1,241.6,300.9,240.5z"/>
	<path class="st109" d="M284.1,315.3c0.1,1.6-0.4,3.1-1,4.5c-0.3,0.7-0.8,1.3-0.9,2.1c-1.1-0.8-0.8-2.1-1.3-3.2
		c-0.4-0.9-0.7-1.9-1-2.9C281.3,315.9,282.7,315.2,284.1,315.3z"/>
	<path class="st126" d="M308.2,238c0-0.5,0-0.9-0.1-1.4c4.4-1.6,8.8-3.2,13.3-4.4c0.2,1.1-0.5,1.6-1.4,1.9
		C316.1,235.4,312.1,236.7,308.2,238z"/>
	<path class="st127" d="M143.4,98.4c0,1.8-1.6,3.4-3.4,3.3c-1.7,0-3.3-1.7-3.2-3.5c0.1-1.7,1.5-3.2,3.2-3.2
		C141.9,95.1,143.4,96.6,143.4,98.4z"/>
	<path class="st128" d="M112.8,106.2c0-1.5,1-2.5,2.6-2.5c1.5,0,2.8,1.3,2.7,2.7c-0.1,1.3-1.3,2.6-2.6,2.6
		C114,109,112.8,107.7,112.8,106.2z"/>
	<path class="st78" d="M277.1,270.2c-1,0.1-1.7-0.3-2.6-0.6c-0.6-0.2-0.9-0.7-0.9-1.3c0-0.7,0.3-1.1,1-1.5c1.5-0.7,2.9-0.3,4.3,0.3
		c1.3,0.6,1.2,1.8-0.1,2.5C278.3,270,277.7,270.3,277.1,270.2z"/>
	<path class="st129" d="M277,262.6c1.2-0.2,2.4-0.3,3.3,1.5c-1.4-0.6-2.2-1.4-3.4-1.1C277,262.9,277,262.7,277,262.6z"/>
	<path class="st130" d="M277,262.6c0,0.2,0,0.3,0,0.5c-0.4,0.6-0.9,1.2-1.6,2.2C275.4,263.6,276,262.9,277,262.6z"/>
</g>
</svg>
